<svg xmlns="http://www.w3.org/2000/svg" viewBox="0 0 250.18 240.84">
    <defs>
        <style>
            .cls-2{opacity:.64}
        </style>
    </defs>
    <g id="Layer_2" data-name="Layer 2">
        <g id="Isometric_Chart" data-name="Isometric Chart">
            <path d="M209 0l.26 92.92L0 213.75c22.69-16.37 36.54-28.33 45.36-40.07 11.22-14.94 20.25-30.83 30.64-36.85a20.24 20.24 0 0 1 3.33-1.55c4.59-1.63 7.29 0 12.47-3 .55-.32 1.12-.68 1.73-1.11 5.34-3.76 8.15-8.63 13.45-15.93 3.25-4.47 15-20.7 25.5-28.6a35.65 35.65 0 0 1 3.65-2.44c9.65-5.57 14.57-1.05 23.33-5a15.34 15.34 0 0 0 1.41-.73C171.5 72.36 188.83 47.93 209 0z" fill="#3fa9f5" id="bluechart"/>
            <path d="M146.59 135.43q1-.55 2-1.05c3.95-1.93 12-1.78 22-3.73a19.54 19.54 0 0 0 6.19-2.16c4.81-2.78 6.31-7.26 13.66-12.56s15.14-14.21 25.29-20.06a40.06 40.06 0 0 1 19.41-5.74l.06 20.37L25.91 231.32C47.11 216 57.16 205 68.23 198.64c.78-.45 1.55-.87 2.34-1.27 9.1-4.64 14.52-5.44 20.3-8.78 3.63-2.1 7.41-5.2 12.33-10.87 4.61-5.32 21.32-13.29 25.52-21.27 4.59-8.71 9.79-16.36 17.87-21.02z" fill="red" id="redchart"/>
            <path d="M183 128.44a17.71 17.71 0 0 1 5.4-2.14c10.65-2.06 7.24 3.52 17-.86a17.8 17.8 0 0 0 1.65-.85c3.41-2 7.17-5.36 11.38-9a93.51 93.51 0 0 1 14.18-10.63 36.35 36.35 0 0 1 17.47-5.3l.06 20.37L40.91 240.84c21.2-15.29 31.26-26.29 42.33-32.68.78-.45 1.55-.87 2.34-1.27 9.1-4.64 14.52-5.44 20.3-8.78 3.63-2.1 7.41-5.2 12.33-10.87 4.61-5.31 19.16-16.78 25.52-21.27 5.34-3.76 15.25-11.1 20.55-18.4 2.72-3.67 10.45-14.35 18.72-19.13z" fill="#fcee21" id="yellowchart"/>
            <path d="M222.08 60.18l.12 41.58L12.92 222.58c22.69-16.37 36.55-28.33 45.37-40.07 9.86-13.13 18-21.83 26.94-27a42.86 42.86 0 0 1 7.08-3.28 9.85 9.85 0 0 0 1.63-.76c4.11-2.37 6.9-7.53 12.55-11.51q.35-.25.7-.45a12.32 12.32 0 0 1 5.71-1.39 12.25 12.25 0 0 0 5.65-1.35 11.64 11.64 0 0 0 3.56-3.38c3.24-4.47 15.06-17.44 25.51-25.34a44.64 44.64 0 0 1 4.56-3.07c8.37-4.83 11.14-1.38 19.57-5.16a19.71 19.71 0 0 0 1.82-.93c9.99-5.75 21.77-22.51 48.51-38.71z" fill="#93278f" id="purple_chart" data-name="purple chart"/>
        </g>
    </g>
</svg>
