<svg xmlns="http://www.w3.org/2000/svg" viewBox="0 0 997.54 700.83">
  <polygon points="997.54 0 566.08 0 418.54 700.01 997.54 700.83 997.54 0" fill="#bbf5ff"/>
  <path d="M997.54,497.53c-307.68-6.84-567.95-6.77-878.23.06V622.42H997.54Z" fill="#8fd4f2"/>
  <path d="M997.54,563.57c-45,3.34-130.54,13.46-188.09,2.92-58.94-10.8-82.4-5.75-110.52-10.8s-111.95,21.6-148.22,12-85.41-15.6-110.13-9.6-51.34,19.2-125.49,7.2c-51.22-8.29-85.21,12.27-101.33,25.77-4.29,3.6-12.12,109.77-6.55,109.77H997.54Z" fill="#f8e6c1"/>
  <path d="M883.45,228.95l6.42-7.32C889.4,221.23,883,229.42,883.45,228.95Z" fill="#bed5da"/>
  <path d="M997.54,98.35v-3c-3.82,4.27-12.63,14.48-32.56,38.27-20.43,24.38-47,55.94-75.11,88h0c30.42-34.56,54.85-60.3,76.85-86.55C984.76,113.55,993.44,103.22,997.54,98.35Z" fill="#bed5da"/>
  <path d="M997.54,37.05c-4.22,1.64-14,5.36-36.24,13.7-42.69,16-86.83,32.55-126.9,55.68A1.13,1.13,0,0,0,834,108a1.12,1.12,0,0,0,1.55.42c39.91-23,84-39.55,126.57-55.52,21.53-8.07,31.2-11.74,35.45-13.39Z" fill="#bed5da"/>
  <path d="M959.83,142a1,1,0,1,1,1.68-.89,88.08,88.08,0,0,1,12.32,23.12,113.83,113.83,0,0,1,5.47,24.62,1,1,0,1,1-1.86.43c-3-8.52-5.93-15.74-8.78-23.13S963.05,151.15,959.83,142Z" fill="#bed5da"/>
  <path d="M997.54,124.41c-2.77-4.88-6.55-10.59-10-13.76-.65-.6-1.89.29-1.55,1.1,2.55,6.11,4.78,11,7.23,15.7,1.39,2.68,2.84,5.32,4.33,8.1Z" fill="#bed5da"/>
  <path d="M749.36,129.17c-2.24-.05-2.3-1.57-.11-1.9,16.67-2.43,30.52-5.27,44-8.43a345.36,345.36,0,0,0,41.35-12.28c2.2-.81,2.88.66.78,1.74a188.82,188.82,0,0,1-40.81,15.88A163.35,163.35,0,0,1,749.36,129.17Z" fill="#bed5da"/>
  <path d="M771.79,151.91c-2.31.85-2.92-.55-.78-1.73,16.24-9,29.57-17.07,42.51-25.26s25.39-16.61,39-27.21c2-1.58,3.12-.37,1.26,1.44a249,249,0,0,1-37.3,30.41A212.26,212.26,0,0,1,771.79,151.91Z" fill="#bed5da"/>
  <path d="M963.57,52.42c1.24-2,2.61-1.31,1.69.87a144.48,144.48,0,0,1-25.5,40.79,161.4,161.4,0,0,1-35.53,29.69c-2.11,1.34-3,0-1.1-1.56a244.26,244.26,0,0,0,32.48-31.76A308.07,308.07,0,0,0,963.57,52.42Z" fill="#bed5da"/>
  <path d="M910.13,72.66c1.42-2.17,2.77-1.47,1.67.91a163.46,163.46,0,0,1-29.62,44.29A180.92,180.92,0,0,1,842,149.76c-2.37,1.43-3.24.06-1.06-1.59a261.69,261.69,0,0,0,37.18-34A319.35,319.35,0,0,0,910.13,72.66Z" fill="#bed5da"/>
  <path d="M945,59.13c1.15-2,2.55-1.44,1.73.78a141.21,141.21,0,0,1-23.78,42,157.2,157.2,0,0,1-34.57,31c-2.08,1.41-3,.09-1.15-1.52a233.35,233.35,0,0,0,31.44-32.94A290.84,290.84,0,0,0,945,59.13Z" fill="#bed5da"/>
  <path d="M925.31,66.44c1.31-2,2.66-1.32,1.68.9a181.65,181.65,0,0,1-25.64,42.14,208.21,208.21,0,0,1-34.13,33c-2,1.58-3.06.35-1.25-1.44A362,362,0,0,0,897,106C906.33,94.17,915.42,81.8,925.31,66.44Z" fill="#bed5da"/>
  <path d="M979.06,46.4c1-1.75,2.39-1.17,1.74.76a127.68,127.68,0,0,1-18.93,36.7,146.41,146.41,0,0,1-28,28.23c-1.69,1.33-2.74.1-1.27-1.43a252.79,252.79,0,0,0,24.79-30.05A355.91,355.91,0,0,0,979.06,46.4Z" fill="#bed5da"/>
  <path d="M997.54,39.12c-.4-.07-.95.31-1.4,1.23a233.3,233.3,0,0,1-23.22,38,190.75,190.75,0,0,1-29.16,31.36c-1.77,1.52-.83,2.84,1.14,1.53a132.6,132.6,0,0,0,32.4-29.55,119.86,119.86,0,0,0,20.25-39.39Z" fill="#bed5da"/>
  <path d="M997.54,59.3c-.35.51-.85,1.31-1.57,2.55a163.31,163.31,0,0,1-16.71,23.91c-1,1.21.07,2.4,1.33,1.37a92.9,92.9,0,0,0,17-17.77Z" fill="#bed5da"/>
  <path d="M889.35,81.45c1.53-2.16,2.85-1.4,1.63,1a186.23,186.23,0,0,1-31.32,44.47,208.28,208.28,0,0,1-40.71,32.91c-2.39,1.51-3.29.17-1.1-1.56a317.68,317.68,0,0,0,37.79-35.12A402.11,402.11,0,0,0,889.35,81.45Z" fill="#bed5da"/>
  <path d="M868.75,89.94c1.62-1.92,2.87-1.05,1.55,1.1A182.91,182.91,0,0,1,837.8,131a207.36,207.36,0,0,1-40.26,28.85c-2.33,1.31-3.17-.07-1-1.61A337.94,337.94,0,0,0,834,126.93,448.4,448.4,0,0,0,868.75,89.94Z" fill="#bed5da"/>
  <path d="M750.69,96.82c-2,1.39-3.05.3-1.17-1.5,7.34-6.59,16.56-9.52,25.14-10.46s16.94.08,24.77,1.53c15.6,3.14,30.49,7,47.67,11.5,2.56.67,2.24,2.26-.38,1.87-17.51-2.55-32.87-5.08-48.26-7.94-7.67-1.31-15.39-2.4-23.43-2.1S758.48,91.73,750.69,96.82Z" fill="#bed5da"/>
  <path d="M751.58,81.75c-2.57,1.15-3.36-.15-.89-1.68a82.58,82.58,0,0,1,57.23-11c9.21,1.54,17.84,4.81,26.25,8.7s16.75,8.38,25.76,13c2.68,1.39,2,2.86-.8,1.74-18.84-7.33-34.87-15.3-52.12-18a98.87,98.87,0,0,0-55.44,7.28Z" fill="#bed5da"/>
  <path d="M773.38,62.5c-2.55.51-3-.94-.51-1.83a86.84,86.84,0,0,1,53.76-1.38,92.88,92.88,0,0,1,23.15,10.64,235.31,235.31,0,0,1,21.58,15.63c2.18,1.72,1.25,3-1.1,1.56-15.67-10-29.63-18.28-45.16-22.53a110.52,110.52,0,0,0-24.37-4A107.91,107.91,0,0,0,773.38,62.5Z" fill="#bed5da"/>
  <path d="M797.38,48.07c-2.37.06-2.62-1.44-.23-1.89a82.33,82.33,0,0,1,25.92-1,87.12,87.12,0,0,1,43.1,17.84,89.54,89.54,0,0,1,17.1,17.55c1.55,2.05.26,3-1.47,1.22A97.92,97.92,0,0,0,863.65,66.6,109.35,109.35,0,0,0,844,56.4,120.31,120.31,0,0,0,822.33,50,109.3,109.3,0,0,0,797.38,48.07Z" fill="#bed5da"/>
  <path d="M813,36.47c-2.41-.22-2.44-1.75,0-1.9a97.09,97.09,0,0,1,49.17,10c14.18,7.06,26.1,16.82,39.2,28.12,2,1.69,1,3-1.16,1.51C885.92,64.4,873.38,56,859.76,49.51a140.52,140.52,0,0,0-21.61-8.22A136.81,136.81,0,0,0,813,36.47Z" fill="#bed5da"/>
  <path d="M838.14,29.57c-2-.6-1.78-2.1.36-1.87A104.92,104.92,0,0,1,880,41,115.28,115.28,0,0,1,912,68.3c1.45,1.74.24,2.82-1.4,1.3a160.94,160.94,0,0,0-33.22-23.78A193.74,193.74,0,0,0,838.14,29.57Z" fill="#bed5da"/>
  <path d="M854.6,22.83c-2.13-.36-2.08-1.88.13-1.9A85.18,85.18,0,0,1,898.18,32.1a91.13,91.13,0,0,1,31.37,29.7c1.3,1.95,0,2.87-1.53,1.14a106,106,0,0,0-15.62-15A119.42,119.42,0,0,0,895.5,36.92,128,128,0,0,0,854.6,22.83Z" fill="#bed5da"/>
  <path d="M876,17.31c-2,.06-2.35-1.44-.19-1.89,8.25-1.5,16.21.4,22.92,3.28s12.5,6.85,17.94,10.7c10.88,7.74,21.19,15.82,32.91,25.17,1.75,1.4.82,2.73-1.09,1.57-12.82-7.78-24-14.67-35-22.22-5.51-3.76-10.87-7.63-16.89-10.83S883.87,17.32,876,17.31Z" fill="#bed5da"/>
  <path d="M898.74,11.17c-1.82-.59-1.55-2.09.39-1.86A88.28,88.28,0,0,1,936.54,22.4a97.15,97.15,0,0,1,27.53,26.42c1.21,1.68-.08,2.66-1.48,1.21A136.21,136.21,0,0,0,933.64,27.1,165.35,165.35,0,0,0,898.74,11.17Z" fill="#bed5da"/>
  <path d="M925,10.61c-1.54-.58-1.22-2.08.45-1.85a73.27,73.27,0,0,1,32.07,12.12A81.57,81.57,0,0,1,980.34,44.7c1,1.49-.35,2.44-1.52,1.15a120.46,120.46,0,0,0-24.38-20.38A152.09,152.09,0,0,0,925,10.61Z" fill="#bed5da"/>
  <path d="M946,4.56c-1.41-.35-1.38-1.87.22-1.89,6.06,0,11.55,2.19,16.07,4.84a74.63,74.63,0,0,1,12,9.09c7.1,6.4,13.66,13.13,21.08,20.93,1.11,1.17,0,2.38-1.26,1.43-8.69-6.35-16.2-12-23.45-18.22-3.62-3.09-7.12-6.24-11-9.17S951.4,5.94,946,4.56Z" fill="#bed5da"/>
  <path d="M997.54,20.09c-11.16-9-11.95-9.53-27.44-18.51a1,1,0,0,0-1.2,1.48c12.4,13.37,15.1,15,28.63,22.79Z" fill="#bed5da"/>
  <path d="M923.09,139.14c-1.22,1.09-2.43.16-1.42-1.27a41.16,41.16,0,0,1,14.06-12,72.85,72.85,0,0,1,15.59-6c10.37-2.89,20.63-4,31.59-8.29,1.62-.66,2.41.76.86,1.71a83.13,83.13,0,0,1-15.68,7.14c-5.18,1.81-10.25,3.25-15.26,4.74a150.41,150.41,0,0,0-15,5.13A52.23,52.23,0,0,0,923.09,139.14Z" fill="#bed5da"/>
  <path d="M892,181.08c-1.47,1.16-2.56.09-1.33-1.36a100.82,100.82,0,0,1,30-24.44,113.67,113.67,0,0,1,35.34-11.73c2-.34,2.32,1.24.44,1.86a179.09,179.09,0,0,0-33.13,14.71A234.81,234.81,0,0,0,892,181.08Z" fill="#bed5da"/>
  <path d="M899.92,161.44c-1.74.88-2.57-.39-1-1.6a165.91,165.91,0,0,1,34-20.84,203,203,0,0,1,36.3-12.37c2-.5,2.49,1,.59,1.82C957,133.61,946.16,138.72,935.19,144S913.09,154.71,899.92,161.44Z" fill="#bed5da"/>
  <path d="M968.14,133.52c-.65-1.25.57-2.17,1.55-1.11a64.18,64.18,0,0,1,14.63,25.35,73.32,73.32,0,0,1,2.61,28.06c-.13,1.52-1.75,1.48-1.91,0a123.81,123.81,0,0,0-6-26.4A174.68,174.68,0,0,0,968.14,133.52Z" fill="#bed5da"/>
  <path d="M976.65,123.08c-.58-1.22.67-2.09,1.58-1.06a71.07,71.07,0,0,1,14.18,24,84.22,84.22,0,0,1,4.45,26.49c0,1.45-1.58,1.61-1.9.22a180.2,180.2,0,0,0-7.73-24.83C984.24,140.16,981.07,132.33,976.65,123.08Z" fill="#bed5da"/>
  <path d="M950.22,154.49c-.57-1.33.71-2.15,1.63-1a72,72,0,0,1,13.45,26.85,83.1,83.1,0,0,1,2.07,28.84c-.14,1.55-1.76,1.52-1.91,0A150.07,150.07,0,0,0,960,181.81,224.67,224.67,0,0,0,950.22,154.49Z" fill="#bed5da"/>
  <path d="M941.34,164.61c-.45-1.43.92-2.09,1.72-.8a92.26,92.26,0,0,1,11.87,28.43,110.84,110.84,0,0,1,2.51,29.55c-.05,1.6-1.67,1.66-1.91.1a265.09,265.09,0,0,0-6-28.34C947.23,184.56,944.76,175.46,941.34,164.61Z" fill="#bed5da"/>
  <path d="M930.77,176.72c-.48-1.5.89-2.17,1.73-.8a106.59,106.59,0,0,1,12.77,29.87,129.13,129.13,0,0,1,3.79,31c0,1.69-1.59,1.82-1.9.18-2.05-11-4.56-20.33-7.21-29.79S934.47,188.15,930.77,176.72Z" fill="#bed5da"/>
  <path d="M939.78,162c1.79-.4,2.23,1.06.59,1.81a205.56,205.56,0,0,0-31.51,17.81,158.77,158.77,0,0,0-26.59,22.52c-1.31,1.38-2.6.4-1.49-1.19a102.69,102.69,0,0,1,24.91-25.84A91.47,91.47,0,0,1,939.78,162Z" fill="#bed5da"/>
  <path d="M997.54,93.31c-15.44,3.06-27.49,7-41.89,16.87a1,1,0,0,0,.83,1.71c8.77-2.63,15.94-5.16,22.87-8,6-2.42,11.74-5.05,18.2-7.89Z" fill="#bed5da"/>
  <path d="M997.54,78.94c-1.5.46-3.12,1-4.49,1.42a24,24,0,0,0-12.12,9c-.49.66.69,1.77,1.32,1.38a41.94,41.94,0,0,1,12.34-5c2.85-.7,1.88-.91,2.95-1.07Z" fill="#bed5da"/>
  <path d="M754,112.07c-1.94.7-2.64-.65-.83-1.71a86.61,86.61,0,0,1,40.93-12.19,93.61,93.61,0,0,1,40.43,7.49c2.06.84,1.48,2.36-.63,1.8a121.43,121.43,0,0,0-39.53-3.79A140.61,140.61,0,0,0,754,112.07Z" fill="#bed5da"/>
  <path d="M997.54,626.66H663.78a6.38,6.38,0,0,0,0,12.77H997.54Z" fill="#dbba9a"/>
  <path d="M860.34,200.82q-3.08.18-6.1.38l-2.43,2.59,10.07,10.6C861.32,210.11,860.78,205.15,860.34,200.82Z" fill="#7182a1"/>
  <path d="M887.62,244.39l-16.2-17c-1.18-.22-2.12-.38-2.83-.49a6.92,6.92,0,0,1-.95-.22h0a6.91,6.91,0,0,1-4.74-5.35c-.19-1-.38-2.18-.57-3.48l-11.92-12.54c-3.08,3.31-6.52,7.05-10.13,11a10.74,10.74,0,0,1-3.92,2.73l43.7,31.68Q883.86,247.45,887.62,244.39Z" fill="#40b6f2"/>
  <path d="M900.92,234.15c-12-3.15-20.59-5-26.1-6.15l14.37,15.12Q895.07,238.41,900.92,234.15Z" fill="#40b6f2"/>
  <path d="M830.78,301.52c-.41-.36-.61-.81-.44-1A517.17,517.17,0,0,1,878.51,252l-44.62-32.35a10.76,10.76,0,0,1-3.79-.11,370.33,370.33,0,0,0-54.58-7.49c-28.86,6.06-50.46,13-59.53,17-.23.1-.6-.22-.83-.73l0,0h0l-.06,0-.22.11h0l-.14.07-.13.07h0a14,14,0,0,0-2.94,2.14c30.8,30.94,99.95,64.94,117.29,72.87l1.24-1.41Z" fill="#3fa9f5"/>
  <path d="M711.58,230.82a12.25,12.25,0,0,0-2.33,2.94h0l-.14.27,0,.08-.1.19-.08.16-.08.16-.08.17,0,0a44.16,44.16,0,0,0-2.31,5.52v0a37,37,0,0,0-.69,22.57,9.26,9.26,0,0,0,2.41,3.94c14.31,13.9,71.45,50.83,97.58,60.29a4,4,0,0,0,4.52-1.35c3.87-5.15,10.09-15.27,18.68-22.15-17.35-7.93-86.5-41.94-117.29-72.87Z" fill="#40b6f2"/>
  <path d="M997.54,288.82l-1.25,0c.5,2,.91,3.48,1.25,4.67Z" fill="#40b6f2"/>
  <path d="M997.54,264.87c-2.24-1-5.38-2-9.48-3.5q2.38,6.84,4.53,14.05l5-1Z" fill="#40b6f2"/>
  <path d="M997.54,276.45l-4.38.91q1.35,4.66,2.61,9.48l1.77,0Z" fill="#40b6f2"/>
  <path d="M968.1,254.4q-8.42-2.83-18.43-6l-9.94,31.8Z" fill="#dac0bc"/>
  <path d="M942.1,284.61l-.44,1.41,48.95-10.18q-2.41-8.14-5-15.34-6.9-2.49-15.37-5.37l-29.72,27C941.72,283,942.32,283.92,942.1,284.61Z" fill="#dac0bc"/>
  <path d="M997.54,299.34c-.57-1.18-1.45-3-3.35-10.45l-53.85,1.17a1,1,0,0,1,0,.31l-.6,1.92c-.37,1.17-2.94,1.46-6.23.85L920.07,336c16.2,5.12,49.33,16.11,77.47,21.08Z" fill="#dac0bc"/>
  <path d="M947.09,287.9l46.59-1q-.56-2.16-1.14-4.25Z" fill="#dac0bc"/>
  <path d="M958.7,284.53,942,288l5.11-.11,45.45-5.26a8.09,8.09,0,0,0-.54-2Z" fill="#3f2a4a"/>
  <path d="M991.17,277.78l-32.47,6.76,33.3-3.86Q991.59,279.21,991.17,277.78Z" fill="#dac0bc"/>
  <path d="M925,280.83l.44-1.41c.22-.69,1.21-1.08,2.66-1.15l-9.05-39.13q-8.62-2.47-15.69-4.34-6.19,4.49-12.8,9.79Z" fill="#dac0bc"/>
  <path d="M914.31,334.24l13.4-42.89c-3.05-1.37-5-3.08-4.64-4.25l.6-1.92a1,1,0,0,1,.14-.28l-43.61-31.62a517.93,517.93,0,0,0-48.35,48.54v0c-.17.19-.64.05-1.06-.31h0l-.67.76-1.24,1.41C855.17,316.18,897.52,329.05,914.31,334.24Z" fill="#dac0bc"/>
  <path d="M911.88,269.91l-22.85-24-2.33,1.91Z" fill="#dac0bc"/>
  <path d="M939.87,245.33q-10-3.09-18.57-5.55l8.64,37.35Z" fill="#dac0bc"/>
  <path d="M881.78,251.93l37.73,27.35-34.37-30.2Q883.47,250.48,881.78,251.93Z" fill="#dac0bc"/>
  <path d="M910.74,345.69l3.58-11.45c-16.8-5.18-59.14-18.06-85.44-30.55-1,6.14-3.21,21.54,2.42,33.39.68,1.43,3,2.85,4.48,3.5,6.47,2.95,27.7,12.38,68.65,25.3Z" fill="#e5cdc6"/>
  <path d="M997.54,357.12c-28.14-5-61.27-16-77.47-21.08l-3.39,10.84-6.5,20.82c41,12.71,63.79,17.4,70.79,18.65a11.77,11.77,0,0,0,6-1.09c6.42-3.69,9-5.57,10.53-7.5Z" fill="#e5cdc6"/>
  <path d="M963.44,199.84a9.91,9.91,0,0,0-7.24-2.26q1.73.63,3.6,1.21T963.44,199.84Z" fill="#69607f"/>
  <path d="M993.16,277.36l-2,.41q.42,1.44.83,2.9l.54,2q.57,2.1,1.14,4.25l2.1,0Q994.51,282,993.16,277.36Z" fill="#d8cdd5"/>
  <path d="M992.59,275.43q-2.15-7.22-4.53-14.05l-2.41-.87q2.54,7.22,5,15.34Z" fill="#d8cdd5"/>
  <path d="M714.25,228.83l.27-.15h0l.13-.07.14-.07h0l.22-.11.06,0h0l0,0h0c-.22-.51-.21-1,0-1.11h0c8.35-3.67,27.18-9.8,52.47-15.48-22.08-.67-36,1.53-41.43,2.63a5.69,5.69,0,0,1-1.4.12,6,6,0,0,1-5.52-4.36,41.74,41.74,0,0,1-1.15-17.05l0,.12-.08.14c-7.09,16.86-10.94,31.45-6.47,37.47a14.07,14.07,0,0,1,2.66-2Z" fill="#dac0bc"/>
  <path d="M859.8,195.41c-1,1-2.19,2.25-3.52,3.65l3.86-.24C860,197.59,859.9,196.45,859.8,195.41Z" fill="#dac0bc"/>
  <path d="M718.05,193.35c-3.16,6-8.13,18.09-9.13,24.55a5.83,5.83,0,0,1-2.74,4.09c-2.2,1.34-6.43,3.7-10.08,4.5l-.69.15a2.84,2.84,0,0,0-2,1.7c-2,4.92-4.28,12.93-1.29,19.87a24.89,24.89,0,0,0,5,6.76.75.75,0,0,0,1.26-.35c4.16-16.86,9.82-22.1,13.21-23.8h0C707.11,224.79,711,210.21,718.05,193.35Z" fill="#e5cdc6"/>
  <path d="M890.59,244.6q6.61-5.32,12.8-9.79l-2.48-.65q-5.85,4.26-11.72,9Z" fill="#d8cdd5"/>
  <path d="M889,245.86l-1.4-1.47q-3.76,3.06-7.55,6.31l1.7,1.23q1.69-1.45,3.36-2.85l1.56-1.3Z" fill="#d8cdd5"/>
  <path d="M878.51,252a517.17,517.17,0,0,0-48.18,48.47c-.17.19,0,.64.44,1h0c.42.37.89.51,1.06.31v0a517.93,517.93,0,0,1,48.35-48.54Z" fill="#d8cdd5"/>
  <path d="M880.21,253.28l43.61,31.62c.53-.74,2.15-1,4.3-.82l-1.42-1.49-1.57-1.65-.09-.1L890.59,244.6l-1.4-1.47L874.82,228l-3.39-.65,16.2,17,1.4,1.47,22.85,24,11.76,12.38-4.14-3-37.73-27.35-1.7-1.23L836.38,219a10.88,10.88,0,0,1-2.49.68L878.51,252Z" fill="#4d3c5b"/>
  <path d="M928.58,280.19l-.44-1.92c-1.45.07-2.44.46-2.66,1.15l-.44,1.41.09.1C925.67,280.37,926.92,280.12,928.58,280.19Z" fill="#69607f"/>
  <path d="M937.24,282.46l1.57-1.43a25,25,0,0,0-8.6-2.69l.48,2.07a25.76,25.76,0,0,1,6.55,2Z" fill="#69607f"/>
  <path d="M941.53,286.05l.13,0,.44-1.41c.22-.69-.38-1.57-1.53-2.46l-1.46,1.32C940.51,284.36,941.4,285.28,941.53,286.05Z" fill="#69607f"/>
  <path d="M928.86,281.42l-.29-1.23c-1.66-.07-2.91.18-3.45.74l1.57,1.65.19-.61C927,281.56,927.76,281.38,928.86,281.42Z" fill="#584b6b"/>
  <path d="M936.28,283.33l1-.87a25.76,25.76,0,0,0-6.55-2l.29,1.27a25.3,25.3,0,0,1,5.29,1.65Z" fill="#584b6b"/>
  <path d="M939.49,285.9l-.19.61,2.23-.46c-.13-.77-1-1.69-2.42-2.57l-.94.85C939.11,284.93,939.61,285.49,939.49,285.9Z" fill="#584b6b"/>
  <path d="M932.24,287c4.59,1.43,7.93,3.81,7.46,5.31l.6-1.92a1,1,0,0,0,0-.31c0-.91-1.19-2.06-3.06-3.12-.39-.22-.81-.44-1.26-.65s-.9-.41-1.38-.6-1.18-.44-1.8-.63-1.24-.36-1.84-.5-1-.22-1.48-.3-1-.14-1.41-.18c-2.15-.19-3.77.08-4.3.82a1,1,0,0,0-.14.28l-.6,1.92C923.55,285.59,927.65,285.54,932.24,287Z" fill="#69607f"/>
  <path d="M939.29,286.52l.19-.61c.13-.41-.38-1-1.31-1.57l-2.15,2c.45.21.87.43,1.26.65Z" fill="#372140"/>
  <path d="M928.86,281.42c-1.11,0-1.85.14-2,.55l-.19.61,1.42,1.49c.45,0,.92.1,1.41.18Z" fill="#372140"/>
  <path d="M934.64,285.69a1.74,1.74,0,0,1,.14-1l1.5-1.36a25.3,25.3,0,0,0-5.29-1.65l.46,2a1.74,1.74,0,0,1-.45.9c.6.14,1.22.31,1.84.5S934.07,285.46,934.64,285.69Z" fill="#372140"/>
  <path d="M997.54,286.81l-1.77,0-2.1,0-46.59,1L942,288l16.72-3.48,32.47-6.76,2-.41,4.38-.91V274.4l-5,1-2,.41L941.66,286l-.13,0-2.23.47-2,.42c1.87,1.06,3,2.21,3.06,3.12l53.85-1.17,2.1,0,1.25,0Z" fill="#4d3c5b"/>
  <path d="M861.88,214.39l-10.07-10.6-1.37,1.47,11.92,12.54C862.19,216.73,862,215.59,861.88,214.39Z" fill="#4d3c5b"/>
  <path d="M928.58,280.19l.29,1.23.66,2.83c.48.08,1,.18,1.48.3a1.74,1.74,0,0,0,.45-.9l-.46-2-.29-1.27-.48-2.07a25,25,0,0,1,8.6,2.69l-1.57,1.43-1,.87-1.5,1.36a1.74,1.74,0,0,0-.14,1c.48.19.95.39,1.38.6l2.15-2,.94-.85,1.46-1.32,29.72-27-2.18-.74-28.37,25.79,9.94-31.8-4.9-1.54-4.91-1.52-9.94,31.8-8.64-37.35-2.21-.64,9.05,39.13Z" fill="#4d3c5b"/>
  <path d="M939.7,292.29c.47-1.5-2.87-3.88-7.46-5.31s-8.69-1.38-9.16.12c-.37,1.17,1.59,2.87,4.64,4.25l.8-2.55c.12-.4,1.51-.32,3.1.18s2.78,1.22,2.65,1.62l-.8,2.55C936.76,293.75,939.34,293.46,939.7,292.29Z" fill="#584b6b"/>
  <path d="M704.79,219.7a3.15,3.15,0,0,0,1.48-2.21c1.12-7.16,6.52-20,9.49-25.54l.17-.26h0c-6.14,8.34-17.82,30.1-22.3,32.55,1-.18,1.89-.36,1.89-.36C698.81,223.15,702.77,220.92,704.79,219.7Z" fill="#f1dbd1"/>
  <path d="M905.08,373.91c-1.59-.5-3-.43-3.2.14l-12.46,39.87a9.49,9.49,0,0,1,5.75,1.8l12.46-39.87C907.81,375.27,906.67,374.4,905.08,373.91Z" fill="#4d3c5b"/>
  <path d="M889.42,413.92c-.88.06-1.51.33-1.66.81h0l-2.21,7.07h0c.29-.93,2.39-1.1,4.68-.38s3.9,2,3.64,3h0l2.21-7.07h0c.15-.48-.21-1.06-.9-1.61a9.49,9.49,0,0,0-5.75-1.8Z" fill="#69607f"/>
  <path d="M890.23,421.42c-2.3-.72-4.39-.55-4.68.38a1.19,1.19,0,0,0,.35,1.07,3.72,3.72,0,0,1,.76-.12l.17-.55c.18-.57,1.61-.64,3.2-.14s2.73,1.36,2.55,1.94l-.17.55a3.73,3.73,0,0,1,.55.54,1.19,1.19,0,0,0,.9-.69h0C894.14,423.46,892.52,422.14,890.23,421.42Z" fill="#372140"/>
  <path d="M892.42,424.55l.17-.55c.18-.57-1-1.44-2.55-1.94s-3-.43-3.2.14l-.17.55a9.49,9.49,0,0,1,5.75,1.8Z" fill="#372140"/>
  <path d="M889.68,423.18a8.59,8.59,0,0,0-3-.43,3.72,3.72,0,0,0-.76.12,1.19,1.19,0,0,0-.9.69h0l-2.21,7.07h0c.29-.93,2.39-1.1,4.68-.38s3.92,2,3.63,3l2.21-7.07h0a1.19,1.19,0,0,0-.35-1.07,3.73,3.73,0,0,0-.55-.54A8.59,8.59,0,0,0,889.68,423.18Z" fill="#69607f"/>
  <path d="M887.47,430.25c-2.3-.72-4.39-.55-4.68.38-.15.48.21,1.06.9,1.61l.38-1.21c.18-.57,1.61-.64,3.2-.14s2.73,1.36,2.55,1.94l-.38,1.21c.88-.06,1.51-.33,1.66-.81h0C891.4,432.3,889.77,431,887.47,430.25Z" fill="#372140"/>
  <path d="M887.27,430.89c-1.59-.5-3-.43-3.2.14l-.38,1.21-62,198.53c.18-.57,1.61-.64,3.2-.14s2.73,1.36,2.55,1.94l62-198.53.38-1.21C890,432.26,888.86,431.39,887.27,430.89Z" fill="#4d3c5b"/>
  <ellipse cx="824.55" cy="631.67" rx="1.09" ry="3.01" transform="matrix(0.3, -0.95, 0.95, 0.3, -24.26, 1230.34)" fill="#372140"/>
  <path d="M715.19,227.23c-.23.1-.24.6,0,1.11h0c.22.5.59.83.83.73,9.07-4,30.67-10.92,59.53-17q-4.09-.23-7.87-.35c-25.28,5.68-44.12,11.81-52.47,15.48Z" fill="#e4dde2"/>
  <path d="M862,189.75c9-5.6,22.71-10.23,35.74-11.45-11.17.69-21.38,1.69-24.34,2.43-39.65-10.46-93.58-8-127.23-2.32-6.8,1.15-13.11,1.84-17.72,3.35C757.84,187.28,846.72,191.18,862,189.75Z" fill="#40b6f2"/>
  <path d="M997.54,204.94c-13.38-3.62-19.8-1.31-34.11-5.1q-1.78-.47-3.65-1.05t-3.6-1.21c-14.9-5.38-22.84-12.9-38.27-17.72-5.94-1.85-13-2.23-20.22-1.56-13,1.22-26.7,5.85-35.74,11.45,5,3.6,69.68,23.32,91.26,30.06,17.23,5.38,37,10.95,44.32,13Z" fill="#f1dbd1"/>
  <path d="M997.54,233.67l-44.32-13.86c-21.58-6.74-86.28-26.46-91.26-30.06,0,0,2,22.48,3.59,31a4.24,4.24,0,0,0,3.48,3.42c8,1.31,32.14,6.21,76.54,20.08,38.29,12,45.91,14.75,52,17.52Z" fill="#e5cdc6"/>
  <path d="M726,182.84c-2.85,1.72-3.77,4.29-4.5,7.07a37.88,37.88,0,0,0,.36,19.51,3.27,3.27,0,0,0,3.8,2.33c9.83-2,45.44-7.24,105,5.22a8.09,8.09,0,0,0,7.65-2.47c7.57-8.33,21.64-23.57,23.65-24.74-15.25,1.44-104.12-2.47-133.54-8A12.53,12.53,0,0,0,726,182.84Z" fill="#3fa9f5"/>
  <path d="M916.68,346.87,920.07,336l13.4-42.89.8-2.55c.12-.4-1.06-1.12-2.65-1.62s-3-.58-3.1-.18l-.8,2.55-13.4,42.89-3.58,11.45-6.31,20.2-.55,1.76-2,6.4c.18-.57,1.61-.64,3.2-.14s2.73,1.36,2.55,1.94l2-6.4.55-1.76Z" fill="#372140"/>
  <polygon points="911.88 269.91 886.69 247.78 885.13 249.08 919.5 279.28 923.64 282.28 911.88 269.91" fill="#3f2a4a"/>
  <polygon points="980.71 586.64 970.38 583.17 970.38 577.1 980.71 580.57 980.71 586.64" fill="#dca58c"/>
  <rect x="857.14" y="577.1" width="113.24" height="6.07" fill="#c98d77"/>
  <path d="M967.29,578.7c-1.28-.1-3.34-.29-5.74-.56l-.72,1.48q3.63,1.23,7.25,2.49v-2.55A.86.86,0,0,0,967.29,578.7Z" fill="#bc7e69"/>
  <polygon points="857.14 583.17 970.38 583.17 980.71 586.64 867.48 586.64 857.14 583.17" fill="#bc7e69"/>
  <path d="M758.69,548.81a3.85,3.85,0,0,1,.8.11c27.1,5.5,75.27,17.9,121.36,34.13l8,2.88c.45.15.74.25,1,.36,32.76,12,50.11,31.9,57.38,42.38.57.83.15,2.21-.66,2.21H933.75a2.37,2.37,0,0,1-1.86-1.05c-14.32-19-40.14-31.23-43.11-32.34-45.43-17-87.28-28.45-127.6-37.71a2.44,2.44,0,0,0-1.29.16,2.93,2.93,0,0,1-1.2.26,3,3,0,0,1-1-.18c-1.59-.57-2.81-2.53-3-4.85C754.42,551.66,756.35,548.81,758.69,548.81Z" fill="#dca58c"/>
  <path d="M931.89,629.82c-14.32-19-40.14-31.23-43.11-32.34l-1.47-.55c-44.87-16.74-86.24-28-126.13-37.16a2.44,2.44,0,0,0-1.29.16,2.93,2.93,0,0,1-1.15.26c39.75,9.18,81,20.5,125.75,37.28,3,1.11,28.78,13.37,43.11,32.34a2.37,2.37,0,0,0,1.86,1.05h4.29A2.37,2.37,0,0,1,931.89,629.82Z" fill="#c98d77"/>
  <path d="M941,630.87h-5.93v1.42a.75.75,0,0,0,.75.75h4.42a.75.75,0,0,0,.75-.75Z" fill="#8b2d28"/>
  <path d="M889.88,586.29c-.29-.11-.58-.21-1-.36l-8-2.88c-27.32-9.62-55.36-17.89-79.31-24.18A164.37,164.37,0,0,0,770.6,562,972.93,972.93,0,0,1,880,594.23h27.62A136,136,0,0,0,889.88,586.29Z" fill="#a87773"/>
  <path d="M770.6,562l-2.32.47a969.15,969.15,0,0,1,107.41,31.8H880A972.92,972.92,0,0,0,770.6,562Z" fill="#ded4db"/>
  <path d="M864.05,590.26h-4.29a3.3,3.3,0,0,1-1.83-.58c-2.14-1.43-3.06-5-2.05-8.08,3.49-10.5,12.76-25.95,24.08-44.23,19.53-31.51,46.27-74.67,66.24-132.53.74-2.16,2.27-3.41,3.86-3.41h4.29c-1.59,0-3.12,1.25-3.86,3.41-20,57.86-46.71,101-66.24,132.53-11.32,18.28-20.59,33.72-24.08,44.23-1,3-.09,6.65,2.05,8.08A3.3,3.3,0,0,0,864.05,590.26Z" fill="#c98d77"/>
  <path d="M954.36,401.44a3.29,3.29,0,0,1,1.88.61c2.13,1.47,3,5.1,2,8.12-20.47,59.32-47.66,103.19-67.5,135.22-10.45,16.87-19.79,32.44-22.77,41.39-.73,2.2-2.27,3.49-3.89,3.49a3.3,3.3,0,0,1-1.83-.58c-2.14-1.43-3.06-5-2.05-8.08,3.49-10.5,12.76-25.95,24.08-44.23,19.53-31.51,46.27-74.67,66.24-132.53C951.24,402.69,952.77,401.44,954.36,401.44Z" fill="#dca58c"/>
  <path d="M859.78,583.63c-.16,2.47.77,4.94,2.44,6.06a3.3,3.3,0,0,0,1.83.58c1.61,0,3.16-1.29,3.89-3.49q.49-1.46,1.19-3.14Z" fill="#a87773"/>
  <path d="M855.49,583.63c-.16,2.47.77,4.94,2.44,6.06a3.3,3.3,0,0,0,1.83.58h4.29a3.3,3.3,0,0,1-1.83-.58c-1.68-1.12-2.61-3.58-2.44-6.06Z" fill="#8e6a5f"/>
  <path d="M895.45,538.69c-21.91-12.67-82.21-35.73-107.2-39-3.1-.41-1.84-4.16.49-7.38a4.1,4.1,0,0,1,3.57-1.78h-7.36a4.1,4.1,0,0,0-3.57,1.78c-2.33,3.22-3.59,7-.49,7.38,25,3.25,85.29,26.31,107.2,39a2.24,2.24,0,0,0,1,.26h7.36A2.24,2.24,0,0,1,895.45,538.69Z" fill="#c98d77"/>
  <path d="M792.31,490.55a16.34,16.34,0,0,1,3.31.51c3.87.82,7.64,2,11.47,3.09q12.55,3.7,24.94,8.34,12.67,4.73,25.21,10.13,12.14,5.22,24.14,11c3.68,1.79,14.7,7.62,16,8.4a4.23,4.23,0,0,1,1.49,4.9,2.57,2.57,0,0,1-2.35,2,2.24,2.24,0,0,1-1-.26c-21.91-12.67-82.21-35.73-107.2-39-3.1-.41-1.84-4.16.49-7.38A4.1,4.1,0,0,1,792.31,490.55Z" fill="#dca58c"/>
  <path d="M765.89,630.87H760v1.42a.75.75,0,0,0,.75.75h4.42a.75.75,0,0,0,.75-.75Z" fill="#8b2d28"/>
  <path d="M760.16,630.87h-4.29c-.45,0-.76-.66-.56-1.23,3.2-9.36,13.26-28.33,24.54-48.27,1.71-3,3.46-6.09,5.21-9.13,12.11-21.08,24.61-41.81,30.9-52.16,1.57-2.59,3.82-4,6.1-4h4.29c-2.29,0-4.53,1.38-6.1,4-6.29,10.35-18.79,31.07-30.9,52.16-1.75,3-3.49,6.1-5.21,9.13-11.28,19.95-21.35,38.91-24.54,48.27C759.4,630.22,759.71,630.87,760.16,630.87Z" fill="#c98d77"/>
  <path d="M826.35,516.11l.58,0a6.36,6.36,0,0,1,3.11,1.24,1.57,1.57,0,0,1,.54.8,2.24,2.24,0,0,1-.17,1.75c-6,10.21-39.1,67.23-59.41,110.18a1.17,1.17,0,0,1-1,.76h-9.83c-.45,0-.76-.66-.56-1.23,3.2-9.36,13.26-28.33,24.54-48.27,1.71-3,3.46-6.09,5.21-9.13,12.11-21.08,24.61-41.81,30.9-52.16C821.82,517.49,824.07,516.11,826.35,516.11Z" fill="#dca58c"/>
  <path d="M823.08,516.11h3.28l.58,0a5.89,5.89,0,0,1,1.29.28l2-3.5a.24.24,0,0,0-.13-.35l-4-1.4a.24.24,0,0,0-.29.11Z" fill="#7e7295"/>
  <path d="M794,556.8c-2.94,5-6,10.22-9,15.44-1.75,3-3.49,6.1-5.21,9.13-2.47,4.37-4.88,8.68-7.17,12.86H777c2.29-4.18,4.7-8.5,7.17-12.86,1.71-3,3.46-6.09,5.21-9.13,3-5.22,6-10.41,9-15.44Z" fill="#8e6a5f"/>
  <path d="M789.06,594.23c6.9-13.11,14-26,20.33-37.43H798.31c-2.94,5-6,10.22-9,15.44-1.75,3-3.49,6.1-5.21,9.13-2.47,4.37-4.88,8.68-7.17,12.86Z" fill="#a87773"/>
  <path d="M826.35,516.11h-4.29a7.23,7.23,0,0,0-5.94,3.71l3.55,1.21.58-1C821.82,517.49,824.07,516.11,826.35,516.11Z" fill="#8e6a5f"/>
  <path d="M830.58,518.18a1.57,1.57,0,0,0-.54-.8,6.36,6.36,0,0,0-3.11-1.24l-.58,0c-2.29,0-4.53,1.38-6.1,4l-.58,1c2.77,1,5.57,1.94,8.38,3l2.36-4.06A2.24,2.24,0,0,0,830.58,518.18Z" fill="#a87773"/>
  <path d="M865.64,603l-89.12.09-3.47,6.63h89.07C863.24,607.55,864.41,605.31,865.64,603Z" fill="#e6b196"/>
  <path d="M862.13,609.71H773.06l2.54,2.52h85.25Z" fill="#c98d77"/>
  <path d="M997.54,611c-1-.74-2-1.46-3.05-2.15H915.87l7.39,5.42h74.28Z" fill="#c98d77"/>
  <path d="M990.66,606.29h-74.1l-.68,2.52h78.61C993.19,607.93,991.91,607.09,990.66,606.29Z" fill="#e6b196"/>
  <path d="M870.88,582.37h97.2l-84.53-25.53s-36.93-4.52-37.36-4.52H772.11S839.45,570.74,870.88,582.37Z" fill="#a30000"/>
  <path d="M878.35,547h0q-1.82,3-3.52,5.83l4.81.5c1.23.13,3.77.27,5.93.43q1.76-2.88,3.59-5.84C884.28,547.55,880.5,547.21,878.35,547Z" fill="#a87773"/>
  <path d="M997.54,404.94H950.47c-20,57.81-46.69,100.94-66.21,132.44q-3.06,4.95-5.91,9.6c10.18,1.06,56.52,4.74,85.62,0q2.82-4.63,5.88-9.57c11.47-18.51,22.09-15.23,27.68-36.26Z" fill="#ce0000"/>
  <path d="M679.41,564.62c-.56,0-1,.54-1.19,1.31l-11.06,63.33c-.14.83.3,1.62.89,1.62h4.29c-.6,0-1-.79-.89-1.62l11.06-63.33c.14-.77.62-1.31,1.19-1.31Z" fill="#c98d77"/>
  <path d="M685.36,564.62a4,4,0,0,1,2.92,1.38,8.58,8.58,0,0,1,1.71,7.48l-12,56.18c-.15.73-.63,1.23-1.17,1.23h-4.43c-.6,0-1-.79-.89-1.62l11.06-63.33c.14-.77.62-1.31,1.19-1.31h1.66Z" fill="#dca58c"/>
  <path d="M678.22,565.93l-2.64,15.14h4.29l2.64-15.14c.14-.77.62-1.31,1.19-1.31h-4.29C678.85,564.62,678.36,565.15,678.22,565.93Z" fill="#8e6a5f"/>
  <path d="M685.36,564.62H683.7c-.56,0-1,.54-1.19,1.31l-2.64,15.14h8.49l1.63-7.59a8.58,8.58,0,0,0-1.71-7.48A4,4,0,0,0,685.36,564.62Z" fill="#a87773"/>
  <path d="M675.38,630.88h-5.93v1.42a.75.75,0,0,0,.75.75h4.42a.75.75,0,0,0,.75-.75Z" fill="#8b2d28"/>
  <polygon points="680.17 594.25 677.66 608.77 754.56 608.77 757.1 594.25 680.17 594.25" fill="#e6b196"/>
  <polygon points="677.66 608.77 681.54 610.15 754.33 610.15 754.56 608.77 677.66 608.77" fill="#c98d77"/>
  <polygon points="884.14 569.3 782.94 569.3 776.04 581.11 877.4 581.11 884.14 569.3" fill="#e6b196"/>
  <polygon points="877.4 581.11 776.04 581.11 778.57 583.63 880.57 583.63 877.4 581.11" fill="#c98d77"/>
  <path d="M884.14,569.3H782.94l-5,8.64H879.21C880.29,576,883.57,570.27,884.14,569.3Z" fill="#b28483"/>
  <path d="M664.65,565.79a4.77,4.77,0,0,1-.79-2.67,5.06,5.06,0,0,1,1.16-3.31c3.55-4.16,35.16-10,52.74-10h-4.29c-17.58,0-49.19,5.88-52.74,10a5.06,5.06,0,0,0-1.16,3.31,4.77,4.77,0,0,0,.79,2.67c.87,1.27,1.59,1.64,2.23,1.64h4.29C666.23,567.43,665.51,567.05,664.65,565.79Z" fill="#c98d77"/>
  <path d="M744.18,565.79a4.77,4.77,0,0,1-.79-2.67,5.06,5.06,0,0,1,1.16-3.31c2.48-2.9,18.63-6.65,34.14-8.64H723.51c-26,0-54.75,5.59-57.85,9.22a4.2,4.2,0,0,0-.94,2.74,4,4,0,0,0,.11.94h0a4.49,4.49,0,0,0,4.13,3.37h77.46C745.77,567.43,745,567.05,744.18,565.79Z" fill="#ce0000"/>
  <path d="M762.24,550.07c-4.76-.32-11.17-.31-11.17-.31H717.75c-17.58,0-49.19,5.88-52.74,10a5.06,5.06,0,0,0-1.16,3.31,4.77,4.77,0,0,0,.79,2.67c.87,1.27,1.59,1.64,2.23,1.64a2.55,2.55,0,0,0,.86-.19,4.77,4.77,0,0,1-2.92-3.18h0a4,4,0,0,1-.11-.94,4.2,4.2,0,0,1,.94-2.74c3.1-3.63,31.83-9.22,57.85-9.22h38A5.39,5.39,0,0,1,762.24,550.07Z" fill="#dca58c"/>
  <path d="M974.15,537.38c12.52-20.2,19.78-32.31,23.39-38.42V490.3c-4.58,8.14-14.32,25.52-27.68,47.07-11.32,18.28-20.59,33.72-24.08,44.23-1,3-.09,6.65,2.05,8.08a3.3,3.3,0,0,0,1.83.58h4.29a3.3,3.3,0,0,1-1.83-.58c-2.14-1.43-3.06-5-2.05-8.08C953.56,571.1,962.83,555.66,974.15,537.38Z" fill="#c98d77"/>
  <path d="M997.54,499c-3.61,6.1-10.87,18.22-23.39,38.42-11.32,18.28-20.59,33.72-24.08,44.23-1,3-.09,6.65,2.05,8.08a3.3,3.3,0,0,0,1.83.58c1.61,0,3.16-1.29,3.89-3.49,3-9,12.32-24.52,22.78-41.39l16.93-27.33Z" fill="#dca58c"/>
  <path d="M748.47,565.79a4.77,4.77,0,0,1-.79-2.67,5.06,5.06,0,0,1,1.16-3.31c3.55-4.16,35.16-10,52.74-10h-4.29c-17.58,0-49.19,5.88-52.74,10a5.06,5.06,0,0,0-1.16,3.31,4.77,4.77,0,0,0,.79,2.67c.87,1.27,1.59,1.64,2.23,1.64h4.29C750.06,567.43,749.34,567.05,748.47,565.79Z" fill="#c98d77"/>
  <path d="M841.86,550c-4.55-.2-7-.2-7-.2H801.58c-17.58,0-49.19,5.88-52.74,10a5.06,5.06,0,0,0-1.16,3.31,4.77,4.77,0,0,0,.79,2.67c.87,1.27,1.59,1.64,2.23,1.64a2.74,2.74,0,0,0,.95-.21c4.89-2.3,26.11-8.34,49.93-8.34h33.32c.67,0,1.22-.78,1.22-1.74v-2.6l4.18.59A6.91,6.91,0,0,1,841.86,550Z" fill="#dca58c"/>
  <path d="M840.3,555.17v-.05l-4.18-.59v.6l2.14.3h2.06C840.31,555.35,840.3,555.26,840.3,555.17Z" fill="#bc7e69"/>
  <path d="M838.71,549.84l-2.6-.07v4.75l2.6.37Z" fill="#8e6a5f"/>
  <path d="M973.09,532.15l-3.23,5.22-2.27,3.68,3.32,1.58,3.25-5.26,2.25-3.63Z" fill="#8e6a5f"/>
  <path d="M976.4,533.75l-2.25,3.63-3.25,5.26c3.26,1.58,6.17,3.08,8.64,4.47l1.07-1.72,4.41-7.13C982.56,536.85,979.65,535.34,976.4,533.75Z" fill="#a87773"/>
  <path d="M993.15,538.69c-21.91-12.67-82.21-35.73-107.2-39-3.1-.41-1.84-4.16.49-7.38a4.1,4.1,0,0,1,3.57-1.78h-7.36a4.1,4.1,0,0,0-3.57,1.78c-2.33,3.22-3.59,7-.49,7.38,25,3.25,85.29,26.31,107.2,39a2.24,2.24,0,0,0,1,.26h7.36A2.24,2.24,0,0,1,993.15,538.69Z" fill="#c98d77"/>
  <path d="M890,490.55a16.34,16.34,0,0,1,3.31.51c3.87.82,7.64,2,11.47,3.09q12.55,3.7,24.94,8.34,12.67,4.73,25.21,10.13,12.14,5.22,24.14,11c3.68,1.79,14.7,7.62,16,8.4a4.23,4.23,0,0,1,1.49,4.9,2.57,2.57,0,0,1-2.35,2,2.24,2.24,0,0,1-1-.26c-21.91-12.67-82.21-35.73-107.2-39-3.1-.41-1.84-4.16.49-7.38A4.1,4.1,0,0,1,890,490.55Z" fill="#dca58c"/>
  <path d="M997.54,594.52l-17.77-8.23a9.75,9.75,0,0,0-1-.36l-8-2.88c-46.1-16.23-94.26-28.63-121.36-34.13a3.82,3.82,0,0,0-.8-.11c-2.33,0-4.26,2.85-4,6.36.18,2.32,1.4,4.28,3,4.85a3,3,0,0,0,1,.18,2.93,2.93,0,0,0,1.2-.26,2.44,2.44,0,0,1,1.29-.16c40.32,9.26,82.17,20.67,127.6,37.71a97.84,97.84,0,0,1,18.86,10.41Z" fill="#dca58c"/>
  <path d="M997.54,607.4c-6.13-5.48-16.69-9.11-18.86-9.92l-1.47-.55c-44.87-16.74-86.24-28-126.13-37.16a2.44,2.44,0,0,0-1.29.16,2.93,2.93,0,0,1-1.15.26c39.75,9.18,81,20.5,125.75,37.29l23.15,14.11Z" fill="#c98d77"/>
  <path d="M848.59,560.2H844.3a3,3,0,0,1-1-.18c-1.59-.57-2.81-2.53-3-4.85-.27-3.51,1.66-6.36,4-6.36h4.29c-2.33,0-4.26,2.85-4,6.36.18,2.32,1.4,4.28,3,4.85A3,3,0,0,0,848.59,560.2Z" fill="#c98d77"/>
  <path d="M863.59,630.87h-5.93v1.42a.75.75,0,0,0,.75.75h4.42a.75.75,0,0,0,.75-.75Z" fill="#8b2d28"/>
  <path d="M857.86,630.87h-4.29c-.45,0-.76-.66-.56-1.23,3.2-9.36,13.26-28.33,24.54-48.27,1.71-3,3.46-6.09,5.21-9.13,12.11-21.08,24.61-41.81,30.9-52.16,1.57-2.59,3.82-4,6.1-4h4.29c-2.29,0-4.53,1.38-6.1,4-6.29,10.35-18.79,31.07-30.9,52.16-1.75,3-3.49,6.1-5.21,9.13-11.28,19.95-21.35,38.91-24.54,48.27C857.1,630.22,857.41,630.87,857.86,630.87Z" fill="#c98d77"/>
  <path d="M924.05,516.11l.58,0a6.36,6.36,0,0,1,3.11,1.24,1.57,1.57,0,0,1,.54.8,2.24,2.24,0,0,1-.17,1.75c-6,10.21-39.1,67.23-59.41,110.18a1.17,1.17,0,0,1-1,.76h-9.83c-.45,0-.76-.66-.56-1.23,3.2-9.36,13.26-28.33,24.54-48.27,1.71-3,3.46-6.09,5.21-9.13,12.11-21.08,24.61-41.81,30.9-52.16C919.52,517.49,921.77,516.11,924.05,516.11Z" fill="#dca58c"/>
  <path d="M920.77,516.11h3.28l.58,0a5.89,5.89,0,0,1,1.29.28l2-3.5a.24.24,0,0,0-.13-.35l-4-1.4a.24.24,0,0,0-.29.11Z" fill="#7e7295"/>
  <path d="M924.05,516.11h-4.29a7.23,7.23,0,0,0-5.94,3.71l3.55,1.21.58-1C919.52,517.49,921.77,516.11,924.05,516.11Z" fill="#8e6a5f"/>
  <path d="M928.28,518.18a1.57,1.57,0,0,0-.54-.8,6.36,6.36,0,0,0-3.11-1.24l-.58,0c-2.29,0-4.53,1.38-6.1,4l-.58,1c2.77,1,5.57,1.94,8.38,3l2.36-4.06A2.24,2.24,0,0,0,928.28,518.18Z" fill="#a87773"/>
  <path d="M763.23,564.62c-.56,0-1,.54-1.19,1.31L751,629.26c-.14.83.3,1.62.89,1.62h4.29c-.6,0-1-.79-.89-1.62l11.06-63.33c.14-.77.62-1.31,1.19-1.31Z" fill="#c98d77"/>
  <path d="M769.19,564.62a4,4,0,0,1,2.92,1.38,8.58,8.58,0,0,1,1.71,7.48l-12,56.18c-.15.73-.63,1.23-1.17,1.23h-4.43c-.6,0-1-.79-.89-1.62l11.06-63.33c.14-.77.62-1.31,1.19-1.31h1.66Z" fill="#dca58c"/>
  <path d="M766.19,562.89l-.86.2-.27,1.53h4.12a3.53,3.53,0,0,1,.55,0l.46-2.62Q768.11,562.46,766.19,562.89Z" fill="#7e7295"/>
  <path d="M759.21,630.88h-5.93v1.42a.75.75,0,0,0,.75.75h4.42a.75.75,0,0,0,.75-.75Z" fill="#8b2d28"/>
  <path d="M762,565.93l-2.64,15.14h4.29l2.64-15.14c.14-.77.62-1.31,1.19-1.31h-4.29C762.67,564.62,762.18,565.15,762,565.93Z" fill="#8e6a5f"/>
  <path d="M769.19,564.62h-1.66c-.56,0-1,.54-1.19,1.31l-2.64,15.14h8.49l1.63-7.59a8.58,8.58,0,0,0-1.71-7.48A4,4,0,0,0,769.19,564.62Z" fill="#a87773"/>
  <path d="M647,278.3a6.25,6.25,0,0,0-8.2,3.31l-24.1,56.65a3.61,3.61,0,0,1-5.55,1.43l-48.49-37.94A6.25,6.25,0,0,0,553,311.6l48.49,37.94a16.11,16.11,0,0,0,24.76-6.38l24.1-56.65A6.25,6.25,0,0,0,647,278.3Z" fill="#f3978e"/>
  <path d="M662.09,264.27a2.31,2.31,0,0,0-.55-.17,1.16,1.16,0,0,1-.85-1.62l.6-1.31a2.54,2.54,0,0,0-1.3-3.34,2.58,2.58,0,0,0-.85-.22,1.16,1.16,0,0,1-1-1.63l.37-.8a2.75,2.75,0,0,0-5-2.27l-.16.36a1,1,0,0,1-1.61.22,2.76,2.76,0,0,0-1-.73,2.72,2.72,0,0,0-3.61,1.31c-5.67,12.48-6.69,14.75-7.88,17.35a1.41,1.41,0,0,1-2.58-.07,66.57,66.57,0,0,0-3.57-7.85A2.56,2.56,0,0,0,628.7,266a63.82,63.82,0,0,1,3.25,7.2,68.18,68.18,0,0,1,3.63,12.64,8.89,8.89,0,0,0,4,6.28c4.74,2.77,11.51-.39,15.11-7.07,3.27-6.06-1.56,4.38,8.52-17.82A2.26,2.26,0,0,0,662.09,264.27Z" fill="#f3978e"/>
  <path d="M469.6,404.42a8.31,8.31,0,0,1,6.37.37l70.45,34.06a60.6,60.6,0,0,1,31.05,34.86l25.73,73.9a8.33,8.33,0,1,1-15.74,5.48l-25.73-73.9a44,44,0,0,0-22.57-25.33l-70.45-34.06a8.33,8.33,0,0,1,.89-15.37Z" fill="#f3978e"/>
  <path d="M591.87,538.07c-6.47,2.25-7.2,10-7,14.43s.2,17,7.07,14.64l35.28-12.28s2.18-1.11.81-5-5.29-3.07-7.41-3.1a31.45,31.45,0,0,1-13.52-3.42C600.71,540.18,596.69,536.39,591.87,538.07Z" fill="#f3978e"/>
  <rect x="587.31" y="561.19" width="43.99" height="3.7" rx="1.1" ry="1.1" transform="translate(-151.26 231.66) rotate(-19.2)" fill="#64455e"/>
  <path d="M608.45,547.64l5.85-2a2.78,2.78,0,0,1,1.44-.1,27.9,27.9,0,0,0,4.85.51c.3,0,.65,0,1,0a12.12,12.12,0,0,1,3.34.19,1.29,1.29,0,0,1,.72,1,5.22,5.22,0,0,0-1.42-.38,2.85,2.85,0,0,0-1.32.13l-8.6,3c-4.82,1.68-2.8,7.82.05,9.44l-7.91,2.75C603.06,560.43,599.7,550.69,608.45,547.64Z" fill="#000800"/>
  <path d="M544.37,436.31a1.2,1.2,0,0,1,.56,1.61l-7.42,15.34a1.2,1.2,0,0,1-1.61.56l-2.67-1.29L541.7,435Z" fill="#4f8baf"/>
  <polygon points="438.88 700.83 0.03 700.83 0 0 581.46 0 438.88 700.83" fill="#58af94"/>
  <polygon points="438.88 700.83 0.03 700.83 0.15 584.67 462.46 584.78 438.88 700.83" fill="#3fa9f5"/>
  <path d="M0,355.79V57L188.89,57a1.53,1.53,0,0,1,1.52,1.52l-.2,297.33Z" fill="#bbf5ff"/>
  <path d="M198,236.95c-1.65-13.06-10.67-23.84-23.83-23.84a23.85,23.85,0,0,0-4.29.39,8.52,8.52,0,0,1-7.49-2.3A36,36,0,0,0,116,207.74a8.51,8.51,0,0,1-8,1.1,30,30,0,0,0-40.34,28.11h0a8.5,8.5,0,0,0,8.5,8.5H189.52S198.77,242.92,198,236.95Z" fill="#fff"/>
  <path d="M0,366.88l188.55.26a15.25,15.25,0,0,0,15.23-15.23V56.39a15.25,15.25,0,0,0-15.23-15.23L0,41.75M0,54.87H94.61v215H0M94.61,279v74.38L0,353.46V279ZM190.07,56.39V269.9H103.75v-215h84.79A1.53,1.53,0,0,1,190.07,56.39Zm0,295.51a1.53,1.53,0,0,1-1.52,1.52H103.75V279h86.32Z" fill="#7d6b80"/>
  <rect x="190.07" y="57.38" width="13.71" height="14.62" fill="#624b77"/>
  <rect x="94.61" y="57.71" width="9.14" height="14.62" fill="#624b77"/>
  <path d="M0,114.75c11.8,0,6.87,1.81,14.67,9.47a10.21,10.21,0,0,0,9,2.76,28.55,28.55,0,0,1,25.18,7.76A10.21,10.21,0,0,0,58,137.46,18,18,0,0,1,79.6,155.08h0a10.18,10.18,0,0,1-10.18,10.18H0" fill="#fff"/>
  <path d="M0,30.75H189.13A25.73,25.73,0,0,1,213.5,48.08a7,7,0,0,1-6.64,9.33L0,57.65" fill="#7d6b80"/>
  <path d="M0,50.35H211.93a7.24,7.24,0,0,0,1.94-.28,7,7,0,0,1-7,7.28L0,57.65" fill="#8a7b8d"/>
  <polygon points="466.13 567.05 0.15 567.42 0.15 584.67 462.46 584.78 466.13 567.05" fill="#e7e3e9"/>
  <polygon points="467.04 563.24 0.15 563.25 0.15 567.42 466.13 567.05 467.04 563.24" fill="#f7f9fc"/>
  <path d="M0,626.75H327.13a6.38,6.38,0,0,1,6.38,6.38h0a6.39,6.39,0,0,1-6.38,6.38H0" fill="#1d81cc"/>
  <path d="M261.93,334.9l.12,0,.12,0c.13,0,17.36,0,17.49,0H280l.12,0,.12,0,0,0h.06c4.29,2.63,9.19,9.25,10.51,20.86a1.73,1.73,0,0,1-1.72,1.92H253a1.73,1.73,0,0,1-1.71-1.92c1.25-11.28,5.64-17.87,10.52-20.87h.06Z" fill="#4d2e4d"/>
  <path d="M177.64,441.17h4.29v-5.72h5.32a1,1,0,0,0,1-1v-7.07a1.26,1.26,0,0,0-1.26-1.26V360.85l70.73-35a1.29,1.29,0,0,0,.62.17h4.31l-.84,8.93h.06l0,0,.12,0,.12,0c.13,0,17.36,0,17.49,0H280l.12,0,.12,0,0,0h.06l-1.54-16.44a1.57,1.57,0,0,0-.51-1l0,0a1.57,1.57,0,0,0-1.06-.41H265a1.55,1.55,0,0,0-1,.4h0a1.73,1.73,0,0,0-.56,1.12l-.41,4.35-1.76-5.05a1.57,1.57,0,0,0-1.87-1l-1.49.38a1.4,1.4,0,0,0-.38.16h0L187.13,352.2h-.52l-.66.33h-8.09a1,1,0,0,0-1,1v72.51a1,1,0,0,0-1,1v7.3a1,1,0,0,0,1,1h.81ZM187,358.46V355.9l.52-.21.2-.09.18-.16.06-.09L257.3,321l.59,2.29a1.26,1.26,0,0,0-.37.23Z" fill="#583a5a"/>
  <path d="M166.53,444.87a3.69,3.69,0,0,1,3.69-3.69H202a3.69,3.69,0,0,1,3.69,3.69v1a1,1,0,0,1-1,1H167.57a1,1,0,0,1-1-1Z" fill="#4d2e4d"/>
  <path d="M144.91,366.57h-4.76c2.2,0,4,2.51,4,5.61a7.89,7.89,0,0,1-.44,2.56l-18.36,66.19a6.17,6.17,0,0,1-.22.79l-.07.18c-.67,1.76-2,3-3.48,3h4.76c1.51,0,2.81-1.21,3.48-3l.07-.18a6.17,6.17,0,0,0,.22-.79l18.36-66.19a7.89,7.89,0,0,0,.44-2.56C148.88,369.08,147.1,366.57,144.91,366.57Z" fill="#7d6076"/>
  <path d="M121.55,444.87c1.51,0,2.81-1.21,3.48-3l.07-.18a6.17,6.17,0,0,0,.22-.79l18.36-66.19a7.89,7.89,0,0,0,.44-2.56c0-3.1-1.78-5.61-4-5.61-1.55,0-2.89,1.27-3.54,3.12a6.85,6.85,0,0,0-.2.67L117.9,437l-.1.4a8.13,8.13,0,0,0-.23,1.86C117.57,442.36,119.35,444.87,121.55,444.87Z" fill="#73556c"/>
  <path d="M173.08,431.62H106.38c.3,0,.54.34.54.76v13.75c0,.42-.24.76-.54.76h66.69c.3,0,.54-.34.54-.76V432.38C173.62,432,173.38,431.62,173.08,431.62Z" fill="#e5dfe5"/>
  <path d="M106.92,446.13V432.38c0-.42-.24-.76-.54-.76H53.85a3.89,3.89,0,0,0-1.09.16,4.15,4.15,0,0,0-.52.19,4.94,4.94,0,0,0-1.41,1,6.39,6.39,0,0,0-.8.93,7.72,7.72,0,0,0-.66,1.13,10,10,0,0,0-.92,4.27c0,4.21,2.43,7.64,5.4,7.64h52.54C106.68,446.9,106.92,446.56,106.92,446.13Z" fill="#d5c9d1"/>
  <path d="M73.4,366.57H68.64c2.19,0,4,2.51,4,5.61a7.89,7.89,0,0,1-.44,2.56L53.81,440.93a6.17,6.17,0,0,1-.22.79l-.07.18c-.67,1.76-2,3-3.48,3H54.8c1.51,0,2.81-1.21,3.48-3l.07-.18a6.19,6.19,0,0,0,.22-.79l18.36-66.19a7.89,7.89,0,0,0,.44-2.56C77.37,369.08,75.59,366.57,73.4,366.57Z" fill="#7d6076"/>
  <path d="M50,444.87c1.51,0,2.81-1.21,3.48-3l.07-.18a6.17,6.17,0,0,0,.22-.79l18.36-66.19a7.89,7.89,0,0,0,.44-2.56c0-3.1-1.77-5.61-4-5.61-1.55,0-2.89,1.27-3.54,3.12a6.82,6.82,0,0,0-.2.67L46.39,437l-.1.4a8.14,8.14,0,0,0-.23,1.86C46.06,442.36,47.84,444.87,50,444.87Z" fill="#8a6f83"/>
  <path d="M203.89,404.88l-26-137.15c-.67-3.51-3.3-6.37-5.87-6.37H21.83a3.1,3.1,0,0,0-1.63.46l-.12.07a3.39,3.39,0,0,0-.63.55l-.11.15a4.1,4.1,0,0,0-.4.57c-.05.09-.09.19-.14.29a5.08,5.08,0,0,0-.24.57c0,.12-.07.24-.11.36a6.24,6.24,0,0,0-.16.75c0,.09,0,.19,0,.29a7.49,7.49,0,0,0,0,1c0,.05,0,.1,0,.16a8.7,8.7,0,0,0,.14,1.19l26,137.15,0,.09c0,.09,0,.17.07.25s.07.28.11.42,0,.17.07.25,0,.11,0,.16.08.23.13.35.2.5.31.74.15.31.23.46.23.4.35.6.18.28.28.42a8.34,8.34,0,0,0,.6.76l0,0a7.16,7.16,0,0,0,.74.68l.11.09a5.82,5.82,0,0,0,.79.51l.15.08a4.6,4.6,0,0,0,.82.32l.13,0a3.74,3.74,0,0,0,.88.12H200.44a3.2,3.2,0,0,0,.82-.12l.17,0C203.39,410.45,204.47,407.92,203.89,404.88Z" fill="#e5dfe5"/>
  <path d="M201.42,411.09l-.17,0a3.2,3.2,0,0,1-.82.12H50.23a3.73,3.73,0,0,1-.88-.12l-.13,0a4.61,4.61,0,0,1-.82-.32l-.15-.08a5.81,5.81,0,0,1-.79-.51l-.11-.09a7.16,7.16,0,0,1-.74-.68l0,0a8.34,8.34,0,0,1-.6-.76c-.1-.14-.19-.27-.28-.42s-.24-.39-.35-.6-.16-.31-.23-.46-.21-.48-.31-.74-.09-.23-.13-.35,0-.11,0-.16,0-.17-.07-.25-.08-.28-.11-.42,0-.17-.07-.25l0-.09-26-137.15a8.7,8.7,0,0,1-.14-1.19c0-.05,0-.11,0-.16a7.49,7.49,0,0,1,0-1c0-.1,0-.19,0-.29a6.24,6.24,0,0,1,.16-.75c0-.12.07-.24.11-.36a5.08,5.08,0,0,1,.24-.57c0-.1.09-.2.14-.29a4.1,4.1,0,0,1,.4-.57l.11-.15a3.39,3.39,0,0,1,.63-.55l.12-.07.1-.07a3.05,3.05,0,0,1,.4-.18L14.25,264c-.08,0-.15.08-.23.12l-.29.15a3.24,3.24,0,0,0-.36.26,3.4,3.4,0,0,0-.26.23,3.77,3.77,0,0,0-.3.36l-.14.18-.07.09a4.7,4.7,0,0,0-.45.88s0,.09,0,.14a6,6,0,0,0-.24.91c0,.11,0,.23,0,.35a7.32,7.32,0,0,0-.05.86c0,.12,0,.24,0,.37a8.64,8.64,0,0,0,.14,1.28l26,137.15a9.49,9.49,0,0,0,.31,1.17c0,.12.08.23.13.35s.13.31.19.46.07.19.11.28.15.31.24.47.23.4.35.6.18.28.28.42l.16.21c.15.19.28.39.44.56l0,0a7.13,7.13,0,0,0,.74.68l.1.09a5.82,5.82,0,0,0,.79.51l.15.08a4.61,4.61,0,0,0,.82.32l.13,0a3.73,3.73,0,0,0,.88.12H194a3.18,3.18,0,0,0,1.13-.2l6.44-2.44Z" fill="#d5c9d1"/>
  <!--THESE 3 ARE THE COMPUTER SCREEN-->
  <g>
  <path d="M25.9,269.17h147l25.57,134.25-147.15,0c-.3,0-.6-.34-.68-.74L25.5,269.91C25.43,269.5,25.6,269.17,25.9,269.17Z" fill="#9aa0ba"/>
  <polygon points="141.59 269.17 180.46 311.33 189.53 359.2 106.55 269.17 141.59 269.17" fill="#b2bdd0"/>
  <path d="M88.25,269.17l106,115,3.5,18.49c.08.4-.11.74-.41.74H163.74L40,269.17Z" fill="#b2bdd0"/>
  </g>
  <path d="M63.35,422.83c0-5.16-3-9.36-6.62-9.36H21.34c-3.65,0-6.62,4.2-6.62,9.36v9.08c0,5.16,3,9.36,6.62,9.36H56.73c3.65,0,6.62-4.2,6.62-9.36Z" fill="#664767"/>
  <path d="M62.92,422.83c0-4.35-2.49-7.88-5.57-7.88H22c-3.08,0-5.57,3.53-5.57,7.88v9.08c0,4.35,2.5,7.88,5.57,7.88H57.35c3.08,0,5.57-3.53,5.57-7.88Z" fill="#faefea"/>
  <path d="M54.32,419.26H43.24c-1,0-1.83,1.16-1.83,2.59V432.9c0,1.43.82,2.59,1.83,2.59H54.32c1,0,1.83-1.16,1.83-2.59V421.85C56.15,420.42,55.33,419.26,54.32,419.26Z" fill="#aab0b1"/>
  <path d="M37.91,421.85c0-1.43-.82-2.59-1.83-2.59H25c-1,0-1.83,1.16-1.83,2.59V432.9c0,1.43.82,2.59,1.83,2.59H36.08c1,0,1.83-1.16,1.83-2.59Z" fill="#aab0b1"/>
  <polygon points="50.4 426.58 50.4 423.01 50.01 422.45 49.62 423.01 49.62 426.58 50.01 427.14 50.4 426.58" fill="#3b0e19"/>
  <polygon points="53.27 432.1 50.66 432.1 50.27 432.66 50.65 433.21 53.27 433.21 53.66 432.66 53.27 432.1" fill="#3b0e19"/>
  <polygon points="50.66 422.64 53.27 422.64 53.66 422.09 53.27 421.54 50.66 421.54 50.27 422.09 50.66 422.64" fill="#3b0e19"/>
  <polygon points="53.52 428.16 53.52 431.74 53.92 432.29 54.31 431.74 54.31 428.16 53.92 427.61 53.52 428.16" fill="#3b0e19"/>
  <polygon points="53.27 427.93 53.66 427.37 53.27 426.82 50.66 426.82 50.27 427.37 50.66 427.93 53.27 427.93" fill="#3b0e19"/>
  <polygon points="46.9 432.1 44.29 432.1 43.9 432.66 44.28 433.21 46.9 433.21 47.29 432.66 46.9 432.1" fill="#3b0e19"/>
  <polygon points="44.29 422.64 46.9 422.64 47.29 422.09 46.9 421.54 44.29 421.54 43.9 422.09 44.29 422.64" fill="#3b0e19"/>
  <polygon points="47.16 423.01 47.16 426.61 47.55 427.14 47.94 426.58 47.94 423.01 47.55 422.45 47.16 423.01" fill="#3b0e19"/>
  <polygon points="44.03 431.74 44.03 428.16 43.64 427.61 43.25 428.16 43.25 431.74 43.64 432.29 44.03 431.74" fill="#3b0e19"/>
  <polygon points="46.9 427.93 47.29 427.37 46.9 426.82 44.29 426.82 43.9 427.37 44.29 427.93 46.9 427.93" fill="#3b0e19"/>
  <polygon points="32.16 426.58 32.16 423.01 31.77 422.45 31.38 423.01 31.38 426.58 31.77 427.14 32.16 426.58" fill="#3b0e19"/>
  <polygon points="35.03 432.1 32.42 432.1 32.03 432.66 32.41 433.21 35.03 433.21 35.42 432.66 35.03 432.1" fill="#3b0e19"/>
  <polygon points="32.42 422.64 35.03 422.64 35.42 422.09 35.03 421.54 32.42 421.54 32.03 422.09 32.42 422.64" fill="#3b0e19"/>
  <polygon points="35.28 428.16 35.28 431.74 35.68 432.29 36.07 431.74 36.07 428.16 35.68 427.61 35.28 428.16" fill="#3b0e19"/>
  <polygon points="35.28 423.01 35.28 426.61 35.67 427.14 36.07 426.58 36.07 423.01 35.68 422.45 35.28 423.01" fill="#3b0e19"/>
  <polygon points="32.16 431.74 32.16 428.16 31.77 427.61 31.38 428.16 31.38 431.74 31.77 432.29 32.16 431.74" fill="#3b0e19"/>
  <polygon points="28.92 428.16 28.92 431.74 29.31 432.29 29.7 431.74 29.7 428.16 29.31 427.61 28.92 428.16" fill="#3b0e19"/>
  <polygon points="28.92 423.01 28.92 426.61 29.31 427.14 29.7 426.58 29.7 423.01 29.31 422.45 28.92 423.01" fill="#3b0e19"/>
  <path d="M2.6,441.28v3.17a2.46,2.46,0,0,0,2.46,2.45H48.21a2.46,2.46,0,0,0,2.46-2.45v-3.17Z" fill="#a30000"/>
  <path d="M0,441.33l21.27-.06a4.71,4.71,0,0,1-.61,0h-.09a5,5,0,0,1-.52-.11h0a5.26,5.26,0,0,1-1.27-.53l0,0-.08-.05,0,0-.36-.24,0,0-.08-.06a9.05,9.05,0,0,1-2.94-4.63h0l0-.07-.06-.23c-.09-.34-.17-.69-.23-1.05,0-.2-.06-.4-.09-.6s0-.22,0-.33,0-.37,0-.55,0-.37,0-.56,0-.13,0-.19v-9.08c0-.07,0-.13,0-.19s0-.37,0-.55,0-.37,0-.56v0c0-.17,0-.35.06-.52a12.09,12.09,0,0,1,.37-1.74,9.08,9.08,0,0,1,2.9-4.6l.09-.07.08-.05a5.1,5.1,0,0,1,3-1.06h0L0,413.5" fill="#ce0000"/>
  <path d="M6.79,427.73s0,0,0-.06c0-.18,0-.37,0-.55s0-.18,0-.27,0,0,0-.06a6.72,6.72,0,0,0-.08-.77s0,0,0-.06l0-.09c0-.12-.05-.24-.08-.36l0-.15c0-.16-.1-.32-.16-.48h0v0a4.86,4.86,0,0,0-.23-.49l-.06-.12a5.18,5.18,0,0,0-.28-.45l0,0a3.87,3.87,0,0,0-.3-.36l-.08-.08a3.58,3.58,0,0,0-.36-.32H5l-.06,0-.26-.17-.12-.06-.25-.11-.08,0-.06,0-.15,0-.17,0-.15,0H.9l.25,0,.15,0,.17,0,.15,0,.13,0,.25.11.12.06.26.17.07,0a3.43,3.43,0,0,1,.36.32l.08.08a3.48,3.48,0,0,1,.3.36l0,0a5.22,5.22,0,0,1,.28.45l.06.12a5.18,5.18,0,0,1,.22.49v0c.06.15.11.31.16.48l0,.15c0,.12.06.24.08.36l0,.15a6.56,6.56,0,0,1,.08.77c0,.11,0,.22,0,.33s0,.37,0,.55,0,.07,0,.11a6.42,6.42,0,0,1-.14.84l0,.12c-.05.19-.11.37-.17.55v0a5.49,5.49,0,0,1-.24.53l-.06.11a4.32,4.32,0,0,1-.29.47l0,0a4.11,4.11,0,0,1-.31.37L2.8,431a3.24,3.24,0,0,1-.37.32l-.08.05a2.89,2.89,0,0,1-.38.22l-.06,0a2.54,2.54,0,0,1-.44.15l-.1,0a2.37,2.37,0,0,1-.47.05H3.5a2.36,2.36,0,0,0,.48-.05l.1,0a2.49,2.49,0,0,0,.44-.15l.06,0a2.88,2.88,0,0,0,.38-.22l.08-.05a3.34,3.34,0,0,0,.37-.32l.07-.08a3.86,3.86,0,0,0,.31-.37l0,0a4.2,4.2,0,0,0,.29-.47l.06-.11a5.3,5.3,0,0,0,.24-.53l0,0c.06-.18.12-.36.17-.55l0-.08s0,0,0,0a6.54,6.54,0,0,0,.14-.84A.29.29,0,0,1,6.79,427.73Z" fill="#dfdde8"/>
  <path d="M.69,422.42v9.38c1.83,0,3.52-2.08,3.52-4.67S2.53,422.42.69,422.42Z" fill="#f1f1f9"/>
  <!--THIS ONE IS THE STEAM-->
  <g id="STEAM">
  <path d="M299.22,384.07a10.64,10.64,0,0,0-3.07,1.63,2.79,2.79,0,0,1-2.8.34,6.26,6.26,0,0,0-8.61,7.07,2.79,2.79,0,0,1-.6,2.42,9.63,9.63,0,0,0-1.8,9.33,9.37,9.37,0,0,0,.51,1.22,2.79,2.79,0,0,1-.36,3.05,7.16,7.16,0,1,0,12.57,3.69,2.79,2.79,0,0,1,1.34-2.77,9.55,9.55,0,0,0,3.59-3.78,2.79,2.79,0,0,1,2.5-1.49,10.64,10.64,0,1,0-3.28-20.72Z" fill="#e9e6ec"/>
  </g>
  <path d="M300.12,421.69a.49.49,0,0,1-.61-.47V420a1.09,1.09,0,0,0-1.09-1.09H277.46a1.09,1.09,0,0,0-1.09,1.09v23.26a4,4,0,0,0,4.05,3.65h15.26a3.8,3.8,0,0,0,3.83-3.65v-1.94a.49.49,0,0,1,.5-.49c3.69.06,9.4-1.33,9.4-10.13C309.41,420.16,303,420.93,300.12,421.69Zm-.42,15.9c-.09,0-.19,0-.19-.06V425.06c0-1,7.45-3.56,7.45,5.62C307,438.43,302.14,438.43,299.7,437.59Z" fill="#4d2e4d"/>
  <path d="M80.25,631.91a1,1,0,0,0,.33.8,1.23,1.23,0,0,0,.85.34h2.35a1.31,1.31,0,0,0,1.34-1.13L99.39,487.68H87.48Z" fill="#f1f1f9"/>
  <path d="M304.84,487.68h-12L320.69,632a1.32,1.32,0,0,0,1.32,1h2.38a1.22,1.22,0,0,0,.89-.37,1,1,0,0,0,.28-.86Z" fill="#f1f1f9"/>
  <path d="M187.21,487.68l14.28,144.24a1.31,1.31,0,0,0,1.34,1.13h2.35a1.23,1.23,0,0,0,.85-.34,1,1,0,0,0,.33-.8l-7.23-144.23Z" fill="#dfdde8"/>
  <polygon points="200.5 515.36 199.11 487.68 187.21 487.68 189.95 515.36 200.5 515.36" fill="#ded4db"/>
  <polygon points="308.82 515.36 304.84 487.68 292.82 487.68 298.17 515.36 308.82 515.36" fill="#ded4db"/>
  <polygon points="96.65 515.36 99.39 487.68 87.48 487.68 86.09 515.36 96.65 515.36" fill="#ded4db"/>
  <polygon points="0.15 487.75 82.93 487.69 82.93 446.83 0.15 446.67 0.15 487.75" fill="#dfdde8"/>
  <rect x="87.61" y="453.96" width="248.65" height="26.74" fill="#d58256"/>
  <rect x="169.51" y="453.96" width="1.97" height="26.74" fill="#ded4db"/>
  <rect x="252.39" y="453.96" width="1.97" height="26.74" fill="#ded4db"/>
  <path d="M129.05,463.78c-3.79,0-6.85-4.4-6.85-9.82H135.9C135.9,459.38,132.84,463.78,129.05,463.78Z" fill="#3b1e38"/>
  <path d="M211.93,463.78c-3.79,0-6.85-4.4-6.85-9.82h13.71C218.79,459.38,215.72,463.78,211.93,463.78Z" fill="#3b1e38"/>
  <path d="M294.82,463.78c-3.79,0-6.85-4.4-6.85-9.82h13.71C301.67,459.38,298.6,463.78,294.82,463.78Z" fill="#3b1e38"/>
  <path d="M82.68,446.9h258.5v40.86H82.68ZM336.26,454H87.61V480.7H336.26Z" fill="#f1f1f9"/>
  <circle cx="354.11" cy="155.93" r="57.91" fill="#776777"/>
  <circle cx="354.11" cy="155.93" r="54.75" fill="#fff"/>
  <rect x="353.21" y="199.83" width="1.81" height="7.1" fill="#c8cad0"/>
  <rect x="353.21" y="104.93" width="1.81" height="7.1" fill="#c8cad0"/>
  <rect x="303.11" y="155.03" width="7.1" height="1.8" fill="#c8cad0"/>
  <rect x="398.01" y="155.03" width="7.1" height="1.8" fill="#c8cad0"/>
  <rect x="329.48" y="111.3" width="1.81" height="7.1" transform="translate(-13.16 180.6) rotate(-30)" fill="#c8cad0"/>
  <rect x="376.93" y="193.47" width="1.81" height="7.1" transform="translate(-47.89 215.28) rotate(-30)" fill="#c8cad0"/>
  <rect x="309.47" y="178.75" width="7.1" height="1.81" transform="translate(-47.89 180.53) rotate(-29.99)" fill="#c8cad0"/>
  <rect x="391.65" y="131.31" width="7.1" height="1.81" transform="translate(-13.17 215.26) rotate(-29.99)" fill="#c8cad0"/>
  <rect x="394.29" y="176.1" width="1.81" height="7.1" transform="translate(42.01 432.08) rotate(-60)" fill="#c8cad0"/>
  <rect x="312.12" y="128.66" width="1.81" height="7.1" transform="translate(41.99 337.16) rotate(-59.99)" fill="#c8cad0"/>
  <rect x="374.28" y="113.94" width="7.1" height="1.81" transform="translate(89.49 384.67) rotate(-60.01)" fill="#c8cad0"/>
  <rect x="326.84" y="196.12" width="7.1" height="1.81" transform="translate(-5.35 384.77) rotate(-60.02)" fill="#c8cad0"/>
  <rect x="338.39" y="144.33" width="52.49" height="1.79" transform="translate(5.47 303.51) rotate(-45.5)" fill="#c8cad0"/>
  <rect x="345.65" y="128" width="1.79" height="42.59" transform="translate(5.77 311.33) rotate(-48.74)" fill="#c8cad0"/>
  <circle cx="354.11" cy="155.93" r="2.82" fill="#c8cad0"/>
  <path d="M338.77,118l21.9,55.33a1,1,0,0,1-.27,1.16,2.82,2.82,0,1,0,1.81-.72,1,1,0,0,1-1-.66l-21.89-55.33a.29.29,0,0,0-.54.21Z" fill="#a30000"/>
  <circle cx="354.11" cy="155.93" r="1.87" fill="#ba646c"/>
  <circle cx="529.64" cy="282" r="8.33" transform="translate(115.28 715.99) rotate(-74.36)" fill="#f3978e"/>
  <path d="M525.71,300a10.93,10.93,0,0,0,11.19-6.79l15-37.31a10.92,10.92,0,1,0-20.26-8.17l-15,37.31a10.93,10.93,0,0,0,9.07,15Z" fill="#f3978e"/>
  <path d="M524.1,266.57l7.6-18.85A10.92,10.92,0,1,1,552,255.89L542.23,280a54.76,54.76,0,0,1-11.69-7.35A58.4,58.4,0,0,1,524.1,266.57Z" fill="#e4797e"/>
  <path d="M558.42,198.85a38.24,38.24,0,0,1,7.93,3.22,35.82,35.82,0,0,1,16.42,18.36,30.77,30.77,0,0,1,1.88,11.74c-.1,5-1.72,9.63-3.07,14.47-1.24,4.43-2.12,9.17-3.85,13.45a28.57,28.57,0,0,1-17.89,16.36c-9.42,2.91-19.14-2.34-26.32-8.12a52.85,52.85,0,0,1-15.8-21.44A44.13,44.13,0,0,1,516.28,220q.11-.41.22-.82C521.1,202.77,539.87,193.66,558.42,198.85Z" fill="#f3978e"/>
  <path d="M546.21,255.2a1.1,1.1,0,0,1,1.37.71s1.25,3.69,6.94,5.28,8.55-.8,8.68-.92a1.09,1.09,0,0,1,1.43,1.66c-.16.14-3.88,3.27-10.7,1.36s-8.37-6.52-8.43-6.72A1.09,1.09,0,0,1,546.21,255.2Z" fill="#d57177"/>
  <path d="M541.72,232.12c3.63-1.45,8.69.57,9.25.81a1.39,1.39,0,0,1-1.07,2.57c-1.25-.52-5-1.67-7.16-.79a1.39,1.39,0,0,1-1-2.58Z" fill="#a94a30"/>
  <path d="M571.82,241.62a1.37,1.37,0,0,1-1.16-1.58,1.39,1.39,0,0,1,1.58-1.16c.6.09,6,1,8.33,4.12a1.39,1.39,0,1,1-2.22,1.67C576.93,242.78,573.15,241.83,571.82,241.62Z" fill="#a94a30"/>
  <path d="M574.55,248.85l-.4,1.44a2.27,2.27,0,0,1-2.7,1.73h0a2.27,2.27,0,0,1-1.41-2.88l.4-1.44a2.15,2.15,0,1,1,4.11,1.15Z" fill="#532442"/>
  <path d="M544.83,244.57h0a2.27,2.27,0,0,1-1.41-2.88l.4-1.44a2.15,2.15,0,1,1,4.11,1.15l-.4,1.44A2.27,2.27,0,0,1,544.83,244.57Z" fill="#532442"/>
  <path d="M517.46,208.78s-5.71,1.38-7.25.77c0,0,2,3.62,5,4.84l-3,3.31s-.2,17.77,4.22,25.4c-.2-2.6-.22-6.32-.18-7.11.28-5.72,2.91-11.42,8.15-11.25a6.15,6.15,0,0,1,1.46.22l.32.1a33.75,33.75,0,0,0,5.06,12.23c1.39-2.38,4.64-3.94,5.74-5.62a23.64,23.64,0,0,0,2.76-7.7c7.75,2.68,13.33,0,17.72-3.87-2.81,3.93-6.45,7.12-10.94,7.3,0,0,10.56,4.94,18.52.68,6.76-3.63,9.76-8.81,12.78-10a1.86,1.86,0,0,1,1.78.28c5,3.74,5.42,16,3.57,22.63h0c-.51,1.87-1.08,3.74-1.61,5.65-.45,1.6-.85,3.23-1.25,4.87,5.84-3.11,8.38-15.11,8.38-15.11a16.48,16.48,0,0,1,2.68,5.89c3.16-5.7-1.21-16.43-1.21-16.43a11.38,11.38,0,0,0,8.16,6.15c-7.44-6.65-1.29-21.52-17.89-27,0,0-3.92-9.22-21.1-14.8-28.18-9.15-35.27,15.68-48.73,11.28C511.4,203.71,514.1,207.75,517.46,208.78Z" fill="#c3684c"/>
  <path d="M487.62,275.11c10-3.74,31.31,2.83,40.81,6.56,10.34,3.79,33.14,13.15,34.71,24.12v0a4.55,4.55,0,0,1,0,1.84h0a6.16,6.16,0,0,1-2.9,4.34,18.14,18.14,0,0,0-7.88,10c-3.3,10.42-9.55,24.83-16.89,35.67A105.29,105.29,0,0,0,518.7,399.6a35.38,35.38,0,0,1-1.79,6.67h0c-.68,1.8-1.35,3.56-2,5.26-6.54,17.18-7.81,24.4-37.29,13.24h0c-22.34-8.46-24.07-14.29-17.58-32,2.73-7.79,6.7-12.29,10.81-16.47a49,49,0,0,0,14-37.54c-.45-6.91-.28-13.6-.61-19-.36-5.92-.45-14.61,1.53-22.59a18.16,18.16,0,0,0-1.71-13.11,6.18,6.18,0,0,1,.22-6.33A6.61,6.61,0,0,1,487.62,275.11Z" fill="#f3978e"/>
  <path d="M545.78,303.89" fill="#f3f0f3"/>
  <path d="M500.35,400.31l-36.54-16.36a1,1,0,0,1-.48-1.51c.59-.87,1.11-1.58,1.49-2.09a47,47,0,0,1,4.27-4.81,47.3,47.3,0,0,0,14-36.84c-.25-3.78-.31-7.42-.37-11-.05-2.89-.09-5.6-.24-8a84.74,84.74,0,0,1,.85-19.7,36.36,36.36,0,0,0-1.15-17.52,7.5,7.5,0,0,1-.31-1.47,7.92,7.92,0,0,1,6.95-8.78c6.68-.77,15.54.26,25.41,2.85v0c2.49,9.78,5.57,13.85,7.93,16.79.22.28-.36,0,0,0s2-10.48,2.26-10.72" fill="#f3f0f3"/>
  <path d="M524.49,281.19a23.34,23.34,0,0,1-4.22-4.18l0-.15q-3.07-1-6-1.75v0a49.11,49.11,0,0,0,7.93,16.79" fill="#f3f0f3"/>
  <path d="M522.22,291.92a48,48,0,0,1-6.75-13,51,51,0,0,0,6.37,15.26C522,293.49,522,292.63,522.22,291.92Z" fill="#d9ced6"/>
  <path d="M521.51,399.87a37.63,37.63,0,0,1-1.93,7.21l-.16.41c-3.1,8.18-6,15.9-12.23,20.27-6.92,4.87-16.62,4.69-30.54-.58-11.06-4.19-17.86-10.5-20.2-18.75-3.66-12.85,4.82-25.26,7.5-28.76a47.27,47.27,0,0,1,4.37-4.93l.33-.34a1.39,1.39,0,0,1,1.49-.33l51.41,19.48a1.39,1.39,0,0,1,.86,1.59C522.08,396.71,521.77,398.29,521.51,399.87Z" fill="#07044c"/>
  <rect x="499.06" y="390.81" width="7.54" height="7.44" rx="0.61" ry="0.61" transform="translate(-44.24 724.99) rotate(-69.25)" fill="#895152"/>
  <polygon points="484.57 391.82 468.04 385.56 472.56 378.85 487.36 384.46 484.57 391.82" fill="#895152"/>
  <path d="M465.37,384.55l-3.79-1.43c.7-1.12,1.35-2.06,1.88-2.78l.49-.65c.51-.66,1-1.31,1.6-1.94.34-.39.67-.77,1-1.15h0l3.32,1.26Z" fill="#895152"/>
  <path d="M496.29,395.43a2.65,2.65,0,0,0-.16.77l-8.31-3.15,2.79-7.36,8.31,3.15a2.65,2.65,0,0,0-.39.68Z" fill="#895152"/>
  <path d="M497.85,398.9l5.82,2.2a2.69,2.69,0,0,0,3.08-.89,2.65,2.65,0,0,0,.39-.68l2.24-5.91a2.65,2.65,0,0,0,.16-.77,2.69,2.69,0,0,0-1.72-2.7L502,388a2.69,2.69,0,0,0-3.08.89,2.65,2.65,0,0,0-.39.68l-2.24,5.91a2.65,2.65,0,0,0-.16.77A2.69,2.69,0,0,0,497.85,398.9Zm6.55.25-5.82-2.2a.61.61,0,0,1-.35-.78l2.24-5.91a.61.61,0,0,1,.78-.35l5.82,2.2a.61.61,0,0,1,.35.78l-2.24,5.91A.61.61,0,0,1,504.41,399.16Z" fill="#fda44c"/>
  <path d="M410.7,364.11a6.25,6.25,0,1,1-12.37-1.84l1.29-8.66L412,355.45Z" fill="#ffa898"/>
  <path d="M403.6,369.37a6.25,6.25,0,0,0,7.1-5.26l9-60.31a11.28,11.28,0,0,1,9.87-9.53l60.58-6.92a6.25,6.25,0,1,0-1.42-12.42l-60.58,6.92A23.81,23.81,0,0,0,407.33,302l-9,60.31A6.25,6.25,0,0,0,403.6,369.37Z" fill="#ffa898"/>
  <path d="M428,280.19l60.58-6.92a7.92,7.92,0,0,1,1.8,15.73l-60.58,6.92a9.61,9.61,0,0,0-8.41,8.12l-7.54,50.53a1.14,1.14,0,0,1-1.29,1l-13.41-2a1.14,1.14,0,0,1-1-1.29l7.54-50.53A25.48,25.48,0,0,1,428,280.19Z" fill="#f3f0f3"/>
  <path d="M411.52,458.28l11.75,2.78a3.17,3.17,0,0,0,3.81-2.35l14.77-62.54a3.16,3.16,0,0,0,.08-.57l0-.11c.11-1.43-.52-2.66-1.55-2.91l-.91-.21-10.85-2.56c1,.24,1.66,1.48,1.55,2.91l0,.12a3.18,3.18,0,0,1-.08.57l-14.77,62.54A3.17,3.17,0,0,1,411.52,458.28Zm18.74-65.57h0a3.92,3.92,0,0,0,0-.92s0,0,0,0v-.17a3.12,3.12,0,0,0-.25-.76v0l0,0,0,0s0,.08,0,.11l.05.14v0c0,.07.06.14.08.22s0,.13,0,.19l0,.15h0s0,.08,0,.13,0,.1,0,.15,0,0,0,0A4.07,4.07,0,0,1,430.26,392.71Z" fill="#512635"/>
  <path d="M378.84,428.92l-.74,3.11a2.67,2.67,0,0,0,2,3.21l3.39.8a2.67,2.67,0,0,0,3.21-2l.73-3.11c18.4,2.51,35.33-6.77,38.94-22l3.8-16.1a3.18,3.18,0,0,1-.08.57l-14.77,62.54a3.17,3.17,0,0,1-3.81,2.35l-54.63-12.9-11.75-2.78a3.17,3.17,0,0,1-2.35-3.81l14.77-62.54a3.17,3.17,0,0,1,.17-.5l-3.79,16.05C350.33,407.06,361.29,422.92,378.84,428.92Z" fill="#713f46"/>
  <path d="M360.05,373.73l-.24-.06h0l.24.06.15,0-.23-.05a1.6,1.6,0,0,1,.48,0l.91.21,10.85,2.56.91.21,54.63,12.9.91.21c1,.24,1.66,1.48,1.55,2.91l0,.12-3.8,16.1c-3.61,15.27-20.54,24.55-38.94,22l1.37-5.81a2.67,2.67,0,0,0-2-3.21l-3.39-.8a2.67,2.67,0,0,0-3.21,2l-1.37,5.8c-17.55-6-28.51-21.86-24.91-37.12l3.79-16.05,0-.14a3.84,3.84,0,0,1,.7-1.13A2.76,2.76,0,0,1,360.05,373.73Z" fill="#895152"/>
  <path d="M383.49,436l-3.39-.8a2.67,2.67,0,0,1-2-3.21l.74-3.11,1.37-5.8a2.67,2.67,0,0,1,3.21-2l3.39.8a2.67,2.67,0,0,1,2,3.21L387.43,431l-.73,3.11A2.67,2.67,0,0,1,383.49,436Z" fill="#fda44c"/>
  <path d="M389.88,378.56c0-.06,0-.12,0-.17s0-.13,0-.2,0,0,0-.06,0-.07,0-.1a2.82,2.82,0,0,0,0-.36s0-.06,0-.09l0-.06a2.39,2.39,0,0,0-.14-.51l0,0a1.79,1.79,0,0,0-.23-.38l0-.06,0,0a1.35,1.35,0,0,0-.24-.21l0,0,4.77,1.13.05,0a1.36,1.36,0,0,1,.24.21l0,0,0,.06a1.8,1.8,0,0,1,.23.38l0,0a2.37,2.37,0,0,1,.14.51v.15a2.85,2.85,0,0,1,0,.36s0,.07,0,.1,0,0,0,.06,0,.13,0,.2,0,.11,0,.17,0,.09,0,.13l-.43,1.84-4.78-1.13.43-1.84Z" fill="#dd8240"/>
  <path d="M389.15,376.24l-.12-.05-.15-.07,4.75,1.12.18.08.12.05h0l-4.77-1.13Z" fill="#a45b37"/>
  <path d="M388.84,376.11l4.75,1.12h0l-4.75-1.12Z" fill="#9f5836"/>
  <path d="M388.84,376.11a1.13,1.13,0,0,1,.19.08l.12.05.06,0a1.35,1.35,0,0,1,.24.21l.07.09a1.79,1.79,0,0,1,.23.38l0,0a2.39,2.39,0,0,1,.14.51s0,.1,0,.15a2.82,2.82,0,0,1,0,.36c0,.05,0,.11,0,.16s0,.13,0,.2,0,.2,0,.3l-.43,1.84-3.82-.9-3.3-.78-1.64-.39.43-1.84c.29-1.22,1.23-2,2.1-1.84l1.88.45,3.73.88Z" fill="#fda44c"/>
  <path d="M415.5,384.74l0-.13c0-.06,0-.12,0-.18s0-.13,0-.2,0,0,0-.05,0-.07,0-.1a2.92,2.92,0,0,0,0-.36s0-.06,0-.09l0-.06a2.38,2.38,0,0,0-.14-.51l0,0a1.78,1.78,0,0,0-.23-.39l0-.06,0,0a1.33,1.33,0,0,0-.21-.19l-.06-.05h0l-.13-.06-.13-.06-.07,0,2.9.68h0l1.88.45a1.14,1.14,0,0,1,.2.08l.13.06.08.06a1.35,1.35,0,0,1,.21.19l.08.09a1.79,1.79,0,0,1,.23.39l0,0a2.39,2.39,0,0,1,.14.51s0,.1,0,.15a2.86,2.86,0,0,1,0,.36c0,.05,0,.11,0,.16s0,.13,0,.2,0,.2,0,.31l-.43,1.84-4.78-1.13Z" fill="#dd8240"/>
  <path d="M412.57,381.72l1.88.45a1.14,1.14,0,0,1,.2.08l.13.06.08.06a1.33,1.33,0,0,1,.21.19l.08.09a1.78,1.78,0,0,1,.23.39l0,0a2.38,2.38,0,0,1,.14.51l0,.15a2.92,2.92,0,0,1,0,.36c0,.05,0,.11,0,.16s0,.13,0,.2,0,.2,0,.3l-.43,1.84-1.63-.39-3.3-.78-3.82-.9.43-1.84c.28-1.2,1.21-2,2.06-1.85h0Z" fill="#fda44c"/>
  <path d="M388.8,376.1c3.59-3.13,7.63-4.61,11.45-3.71a9.84,9.84,0,0,1,2.31.89,14.37,14.37,0,0,0-9,3.94l-4.75-1.12Z" fill="#3d1d35"/>
  <path d="M412.57,381.72q-.35-1.32-.8-2.54v0a24.82,24.82,0,0,0-1-2.31l0-.05a21.31,21.31,0,0,0-1.16-2.06l0-.07a18.16,18.16,0,0,0-1.32-1.8l0,0-.27-.3c-.15-.17-.3-.34-.46-.51l-.34-.33-.46-.44-.37-.31-.47-.39-.4-.28-.49-.34-.11-.07-.17-.09a12.31,12.31,0,0,0-1.09-.59l-.24-.12a11.84,11.84,0,0,0-1.32-.5l-.12,0-.69-.18,4.78,1.13c.27.06.54.15.8.23a11.81,11.81,0,0,1,1.32.5l.24.12a12.32,12.32,0,0,1,1.09.59l.27.16.49.34.4.28.47.39.37.31.46.44.34.33c.16.16.31.33.46.51l.29.33a18.12,18.12,0,0,1,1.32,1.8l0,.07a21.26,21.26,0,0,1,1.16,2.06l0,.05a24.87,24.87,0,0,1,1,2.31v0q.45,1.22.8,2.54l-2.9-.68Z" fill="#3d1d35"/>
  <path d="M403.33,369.05l.24.12a12.31,12.31,0,0,1,1.09.59l.27.16.49.34.4.28.47.39.37.31.46.44.34.33c.16.16.31.33.46.51l.29.33a18.16,18.16,0,0,1,1.32,1.8l0,.07a21.31,21.31,0,0,1,1.16,2.06l0,.05a24.82,24.82,0,0,1,1,2.31v0q.45,1.22.8,2.54l-3.74-.88h0a14.21,14.21,0,0,0-6.24-7.54,9.84,9.84,0,0,0-2.31-.89c-3.82-.9-7.86.57-11.45,3.71l-3.73-.88c4.77-5.4,10.64-8.19,16.14-6.89.27.06.54.15.8.23A11.84,11.84,0,0,1,403.33,369.05Z" fill="#4c2a40"/>
  <path d="M357.88,375.27h0c0,.06-.07.12-.1.18v0Z" fill="#4a2031"/>
  <path d="M357.7,375.6c0-.07.07-.13.1-.19v0C357.77,375.49,357.73,375.54,357.7,375.6Z" fill="#4a2031"/>
  <path d="M358.44,374.45l.05-.06a2.89,2.89,0,0,1,.35-.3l.14-.1.06,0,.07,0,.16-.08a1.9,1.9,0,0,1,.46-.17h0l.07,0,.24.06a2.76,2.76,0,0,0-1.6.75,2.62,2.62,0,0,0-.26.27l.05-.07Z" fill="#481f30"/>
  <path d="M359.2,373.85l0,0,.09,0-.06,0Z" fill="#481f30"/>
  <polygon points="359.74 373.66 359.74 373.66 359.74 373.66 359.74 373.66" fill="#481f30"/>
  <path d="M358.19,374.75l.12-.16h0l-.06.09Z" fill="#481f30"/>
  <path d="M357.92,375.17v0l.06-.1,0,.06Z" fill="#481f30"/>
  <path d="M358.67,374.22l.08-.07.15-.1,0,0Z" fill="#481f30"/>
  <path d="M358,375.1,358,375c0,.08-.09.16-.13.24h0Z" fill="#481f30"/>
  <path d="M360.05,373.73l-.24-.06-.07,0h0l.16,0,.07,0,.23.05Z" fill="#481f30"/>
  <path d="M430.14,391.42c0,.06,0,.13,0,.19h0C430.16,391.55,430.16,391.48,430.14,391.42Z" fill="#824b4e"/>
  <path d="M430,390.92s0,.08,0,.11l.05.14a2.93,2.93,0,0,0-.12-.3Z" fill="#824b4e"/>
  <path d="M430.19,391.68v-.07h0l0,.15h0v-.1Z" fill="#6b3a43"/>
  <path d="M358.85,374.09l0,0,.18-.13L359,374Z" fill="#6b3a43"/>
  <path d="M357.79,375.44v0c-.05.11-.09.24-.13.36l.05-.21h0C357.73,375.54,357.77,375.49,357.79,375.44Z" fill="#6b3a43"/>
  <path d="M358.5,374.39l0,0,.2-.19.18-.13A2.89,2.89,0,0,0,358.5,374.39Z" fill="#6b3a43"/>
  <path d="M358.25,374.68l.06-.09.16-.17,0,0Z" fill="#6b3a43"/>
  <path d="M357.88,375.27l-.09.17v0l.12-.23,0-.07Z" fill="#6b3a43"/>
  <path d="M358,375c.06-.1.12-.2.19-.29l.06-.07-.05.07L358,375l-.05.08Z" fill="#6b3a43"/>
  <circle cx="359.74" cy="373.66" transform="translate(-56.53 64.22) rotate(-9.46)" fill="#6b3a43"/>
  <path d="M359.12,373.9l0,0,.12-.07.07,0Z" fill="#6b3a43"/>
  <path d="M359.27,373.83l.06,0a1.7,1.7,0,0,1,.4-.14h0a1.9,1.9,0,0,0-.46.17Z" fill="#6b3a43"/>
  <path d="M429.92,390.86v0l0,0a2.93,2.93,0,0,1,.12.3v0c0,.07.06.14.08.22s0,.12,0,.19A3.12,3.12,0,0,0,429.92,390.86Z" fill="#6b3a43"/>
  <path d="M430.21,391.8s0,0,0,0,0,.08,0,.13,0,.1,0,.15,0,0,0,0a4.07,4.07,0,0,1,0,.62h0A3.92,3.92,0,0,0,430.21,391.8Z" fill="#6b3a43"/>
  <path d="M398.32,380.62c11.41,3.56,11.61-2,13.55-8.4s-1-12.93-6.52-14.66-11.61,2-13.55,8.4S386.9,377.06,398.32,380.62Z" fill="#ffa898"/>
  <path d="M386.33,584.65a8.33,8.33,0,0,1-11.82-11.75l6.39-6.42,11.82,11.75Z" fill="#875c5f"/>
  <path d="M508.87,408a11.12,11.12,0,0,1,4.1,15.16l-29.51,51.44a337.14,337.14,0,0,1-53.34,69.91l-34.45,34.64a1.39,1.39,0,0,1-2,0l-1-1L380.9,566.48l-1-1a1.39,1.39,0,0,1,0-2l34.45-34.64a314.74,314.74,0,0,0,49.82-65.29l29.51-51.44A11.12,11.12,0,0,1,508.87,408Z" fill="#07044c"/>
  <path d="M373.8,572.09a.64.64,0,0,1,.85.82c-.33.88-.31,2.07,1,3.4,2.61,2.59,7-3.27,14.79,3.24a7.67,7.67,0,0,1,2.23,3.14,25.37,25.37,0,0,1-.26,18,4.23,4.23,0,0,1-2.67,2.51,3.21,3.21,0,0,1-3.24-.7l-19.11-19a4.89,4.89,0,0,1-1.3-4.24,6.49,6.49,0,0,1,2.57-4.19A24.55,24.55,0,0,1,373.8,572.09Z" fill="#521b3b"/>
  <path d="M518.33,410.36,512,425.75l-26.35,45,17.49-84.14" fill="#68a4be"/>
  <path d="M503.61,416.61,541.7,435l-8.46,17.51-34.47-17.44" fill="#68a4be"/>
  <path d="M503.18,386.59l18.54,6.54a1.39,1.39,0,0,1,.86,1.59c-.34,1.57-.65,3.15-.91,4.73a37.63,37.63,0,0,1-1.93,7.21l-.16.41c-3.1,8.18-6,15.9-12.23,20.27-6.92,4.87.38,10.9-13.54,5.63" fill="#68a4be"/>
  <path d="M619,666h-254a8.54,8.54,0,0,1,0-17.09H619A8.54,8.54,0,0,1,619,666Z" fill="#4d2e4d" opacity="0.1"/>
</svg>
