<?xml version="1.0" standalone="no"?>
<!DOCTYPE svg PUBLIC "-//W3C//DTD SVG 20010904//EN"
 "http://www.w3.org/TR/2001/REC-SVG-20010904/DTD/svg10.dtd">
<svg version="1.0" xmlns="http://www.w3.org/2000/svg"
 width="1405.000000pt" height="1405.000000pt" viewBox="0 0 1405.000000 1405.000000"
 preserveAspectRatio="xMidYMid meet">
<metadata>
Created by potrace 1.11, written by Peter Selinger 2001-2013
</metadata>
<g transform="translate(0.000000,1405.000000) scale(0.100000,-0.100000)"
fill="#000000" stroke="none">
<path d="M10532 10826 c-94 -57 -172 -101 -172 -97 0 3 -4 1 -8 -4 -4 -6 -41
-31 -82 -55 -41 -24 -77 -47 -80 -50 -3 -4 -20 -13 -37 -21 -18 -8 -33 -16
-33 -19 0 -4 -22 -17 -50 -31 -27 -13 -50 -27 -50 -31 0 -5 -5 -8 -10 -8 -6 0
-34 -16 -63 -35 -28 -19 -57 -35 -64 -35 -6 0 -13 -3 -15 -8 -1 -4 -48 -34
-103 -67 -55 -33 -109 -65 -120 -72 -11 -7 -26 -15 -34 -19 -8 -4 -79 -47
-159 -96 -79 -48 -148 -88 -153 -88 -5 0 -9 -3 -9 -8 0 -4 -12 -13 -27 -19
-16 -7 -52 -28 -80 -47 -29 -19 -53 -33 -53 -30 0 3 -7 -2 -16 -10 -8 -9 -21
-16 -29 -16 -7 0 -15 -3 -17 -8 -1 -4 -70 -47 -153 -97 -82 -49 -159 -95 -170
-102 -11 -7 -32 -18 -47 -25 -16 -7 -28 -15 -28 -19 0 -3 -18 -14 -40 -24 -22
-10 -40 -22 -40 -27 0 -4 -4 -8 -10 -8 -5 0 -33 -15 -62 -32 -29 -18 -65 -40
-79 -48 -196 -115 -187 -108 -244 -196 -30 -46 -55 -88 -55 -94 0 -5 -4 -10
-10 -10 -5 0 -10 -7 -10 -15 0 -8 -3 -15 -8 -15 -4 0 -12 -9 -17 -20 -15 -29
-118 -194 -125 -200 -4 -3 -10 -12 -13 -20 -4 -8 -15 -27 -25 -42 -205 -323
-289 -456 -464 -735 -114 -182 -208 -336 -208 -342 0 -6 -4 -11 -8 -11 -5 0
-14 -11 -20 -25 -7 -14 -16 -31 -22 -38 -6 -7 -49 -70 -96 -142 -104 -157
-179 -253 -252 -321 -48 -45 -127 -96 -157 -100 -5 0 -920 -2 -2032 -2 l-2023
-2 -27 -42 c-16 -24 -32 -47 -36 -53 -22 -27 -167 -257 -167 -265 0 -4 -3 -10
-8 -12 -6 -2 -160 -235 -217 -328 -5 -9 -27 -43 -49 -76 -21 -32 -60 -93 -87
-134 -26 -41 -53 -80 -58 -87 -6 -7 -11 -15 -11 -18 0 -3 -20 -36 -45 -73 -25
-37 -50 -74 -55 -82 -5 -8 -21 -32 -35 -53 -14 -21 -25 -40 -25 -43 0 -3 -5
-10 -11 -17 -5 -7 -33 -48 -62 -92 -159 -248 -187 -291 -194 -300 -5 -5 -35
-53 -68 -105 -32 -52 -72 -113 -87 -134 -15 -21 -28 -43 -28 -48 0 -4 292 -8
651 -8 359 0 653 -1 655 -2 1 -2 215 -1 474 2 260 3 476 3 480 0 4 -3 184 -3
400 0 215 3 393 4 394 2 5 -4 2425 -2 2721 4 291 5 346 7 485 18 125 11 268
25 290 30 33 6 87 16 120 21 208 30 455 107 680 213 36 17 69 34 73 39 5 4 12
8 15 8 10 0 124 70 197 119 54 37 81 58 210 159 81 64 356 348 425 438 14 18
40 51 58 73 54 66 55 67 118 156 75 104 239 352 259 390 8 15 20 34 28 42 7 7
24 32 38 56 13 23 80 130 149 238 69 107 152 238 185 290 148 232 233 366 290
454 34 52 78 122 99 155 21 33 59 94 86 135 27 41 68 106 92 144 24 38 50 79
58 91 8 13 46 72 83 131 38 60 102 161 143 224 41 63 77 122 81 130 4 8 9 17
13 20 8 6 152 233 165 260 5 11 13 20 17 20 5 0 8 5 8 12 0 6 11 26 25 44 14
18 25 37 25 43 0 6 5 11 10 11 15 0 12 16 -5 34 -8 8 -15 19 -15 24 0 5 -11
22 -25 38 -14 16 -28 37 -31 47 -3 9 -10 17 -15 17 -5 0 -9 4 -9 9 0 5 -65
107 -145 226 -80 119 -145 220 -145 225 0 5 -4 10 -8 12 -5 2 -35 44 -67 93
-33 50 -63 92 -67 93 -4 2 -8 8 -8 13 0 5 -20 38 -45 75 -25 36 -45 69 -45 75
0 5 -4 9 -8 9 -5 0 -15 12 -23 28 -8 15 -17 29 -20 32 -11 10 -66 95 -72 113
-4 9 -11 17 -17 17 -5 0 -10 4 -10 9 0 12 -61 105 -72 109 -4 2 -8 10 -8 17 0
8 -6 20 -13 27 -7 7 -30 40 -52 73 -21 33 -41 63 -44 67 -4 4 -84 -39 -179
-96z"/>
<path d="M13050 8770 c-8 -5 -64 -39 -125 -75 -60 -36 -117 -70 -125 -75 -8
-5 -33 -19 -55 -31 -22 -12 -42 -25 -45 -29 -3 -3 -12 -9 -20 -13 -8 -4 -32
-17 -52 -29 -138 -85 -179 -108 -188 -108 -5 0 -10 -4 -10 -8 0 -5 -15 -16
-32 -25 -18 -10 -46 -26 -63 -37 -16 -11 -37 -23 -45 -27 -8 -3 -45 -26 -82
-49 -38 -24 -68 -41 -68 -38 0 3 -7 -2 -16 -10 -8 -9 -22 -16 -30 -16 -8 0
-14 -4 -14 -8 0 -5 -10 -14 -22 -20 -34 -17 -98 -54 -143 -83 -79 -50 -146
-89 -156 -89 -5 0 -9 -4 -9 -8 0 -4 -19 -18 -42 -30 -59 -30 -98 -53 -136 -80
-17 -13 -32 -20 -32 -15 0 4 -4 3 -8 -2 -9 -13 -111 -75 -123 -75 -5 0 -9 -4
-9 -10 0 -5 -5 -10 -11 -10 -6 0 -34 -15 -62 -33 -29 -18 -61 -38 -72 -44 -44
-27 -181 -109 -196 -118 -9 -5 -34 -20 -55 -33 -22 -12 -52 -31 -69 -41 -16
-10 -44 -27 -62 -37 -17 -10 -64 -39 -104 -63 -40 -24 -82 -49 -93 -55 -52
-28 -77 -51 -102 -94 -15 -26 -31 -51 -36 -57 -5 -5 -32 -48 -61 -95 -153
-246 -262 -415 -269 -418 -4 -2 -8 -9 -8 -15 -1 -10 -78 -135 -107 -172 -4 -6
-15 -23 -23 -38 -27 -48 -104 -172 -110 -177 -4 -3 -24 -34 -45 -70 -21 -36
-41 -67 -44 -70 -8 -7 -71 -110 -71 -116 0 -3 -5 -10 -11 -17 -6 -7 -50 -77
-99 -157 -49 -80 -94 -150 -99 -157 -6 -7 -11 -15 -11 -18 0 -3 -24 -41 -52
-83 -29 -42 -57 -84 -63 -93 -62 -100 -167 -233 -238 -301 -95 -92 -142 -109
-302 -111 -66 0 -125 2 -131 6 -6 3 -14 4 -18 0 -9 -9 -216 -9 -216 0 0 5 -5
5 -11 1 -16 -10 -149 -11 -149 -1 0 4 -8 4 -17 0 -10 -5 -31 -7 -48 -6 -16 2
-41 3 -55 3 -26 -1 -137 0 -155 1 -5 0 -36 -2 -67 -3 -32 -2 -58 0 -58 5 0 4
-5 5 -11 1 -16 -9 -110 -11 -116 -1 -2 4 -10 4 -16 0 -16 -10 -88 -10 -109 0
-10 4 -18 4 -18 0 0 -9 -132 -8 -155 1 -8 3 -15 2 -15 -2 0 -8 -108 -8 -116 1
-3 3 -16 2 -29 -3 -13 -5 -25 -7 -28 -4 -4 5 -48 6 -107 2 -20 -1 -43 1 -52 5
-10 3 -19 3 -22 -1 -2 -4 -22 -6 -43 -4 -44 3 -39 3 -123 0 -36 -1 -70 1 -76
4 -5 4 -16 3 -23 -1 -7 -5 -28 -5 -47 -1 -18 4 -35 6 -37 3 -8 -7 -87 -9 -87
-1 0 4 -10 4 -22 -1 -13 -4 -34 -5 -48 -1 -14 3 -42 3 -63 -1 -20 -3 -40 -2
-43 2 -3 5 -10 7 -15 3 -15 -9 -89 -10 -89 -2 0 4 -10 4 -22 -1 -13 -4 -35 -5
-50 0 -16 4 -30 3 -34 -2 -3 -5 -10 -7 -15 -3 -9 5 -47 6 -129 2 -20 -1 -42 1
-50 4 -8 3 -24 2 -35 -2 -11 -4 -30 -4 -42 1 -13 5 -23 5 -23 0 0 -5 -15 -6
-32 -2 -18 4 -46 4 -63 1 -16 -4 -37 -3 -46 1 -8 4 -21 4 -28 -1 -8 -4 -27 -4
-42 0 -16 5 -29 5 -29 0 0 -4 -15 -5 -32 -1 -18 4 -48 4 -66 0 -18 -3 -35 -3
-38 2 -2 4 -15 4 -27 0 -13 -5 -30 -5 -38 -1 -8 5 -21 5 -29 0 -7 -4 -24 -4
-36 0 -13 5 -26 5 -29 1 -3 -5 -20 -6 -37 -2 -18 4 -48 4 -65 0 -18 -3 -33 -3
-33 2 0 4 -13 4 -30 -1 -17 -5 -32 -5 -35 0 -3 5 -16 5 -30 0 -15 -6 -27 -6
-30 0 -3 6 -15 6 -30 0 -15 -6 -27 -6 -30 0 -3 6 -15 6 -29 0 -13 -5 -27 -6
-30 -3 -8 8 -84 8 -92 0 -3 -3 -16 -2 -28 3 -12 4 -29 4 -37 0 -8 -5 -21 -5
-29 0 -7 4 -23 5 -35 0 -12 -5 -28 -4 -35 0 -8 5 -21 5 -30 0 -9 -5 -22 -5
-30 0 -7 4 -23 5 -35 0 -11 -4 -28 -4 -36 0 -8 5 -21 5 -29 0 -7 -4 -24 -4
-36 0 -14 6 -26 5 -29 0 -3 -5 -15 -6 -28 -1 -13 5 -30 5 -38 1 -8 -5 -21 -5
-29 0 -7 4 -24 4 -36 0 -14 -6 -26 -5 -29 0 -3 6 -15 6 -29 0 -13 -5 -26 -7
-29 -4 -7 8 -177 10 -177 2 0 -4 -13 -3 -30 2 -18 5 -32 5 -35 -1 -4 -5 -13
-5 -23 0 -11 6 -24 6 -34 0 -10 -6 -19 -6 -23 0 -3 7 -15 7 -30 1 -15 -6 -27
-6 -30 0 -3 6 -15 6 -30 0 -14 -5 -25 -6 -25 -2 0 4 -16 7 -35 7 -19 0 -35 -3
-35 -7 0 -4 -11 -3 -25 2 -15 6 -26 6 -30 0 -4 -6 -13 -7 -24 -1 -9 5 -23 6
-30 2 -13 -8 -59 -6 -68 3 -3 3 -13 1 -22 -4 -10 -5 -23 -5 -31 0 -8 5 -21 5
-30 0 -9 -5 -22 -5 -30 0 -8 5 -21 5 -31 -1 -11 -6 -20 -5 -24 1 -4 6 -15 6
-30 0 -15 -6 -25 -6 -25 0 0 5 -12 5 -29 0 -15 -4 -34 -4 -42 0 -7 5 -21 4
-30 -1 -11 -6 -20 -5 -24 1 -4 6 -15 6 -30 0 -14 -5 -25 -6 -25 -2 0 4 -25 7
-55 7 -30 0 -55 -4 -55 -8 0 -4 -8 -3 -18 2 -11 6 -24 6 -34 0 -10 -6 -19 -6
-23 0 -4 7 -15 7 -30 1 -14 -5 -25 -6 -25 -2 0 4 -13 7 -29 7 -16 0 -27 -3
-24 -7 2 -5 -6 -4 -19 1 -13 5 -33 5 -46 0 -12 -5 -22 -5 -22 -1 0 9 -52 8
-67 -1 -6 -4 -13 -4 -17 0 -10 10 -65 9 -59 -1 4 -5 1 -6 -5 -2 -16 10 -91 13
-86 4 3 -4 -5 -4 -18 1 -14 5 -31 5 -40 0 -9 -5 -19 -6 -22 -1 -5 9 -47 9 -62
-1 -5 -3 -16 -2 -23 2 -7 5 -28 5 -47 1 -19 -4 -34 -5 -34 -1 0 6 -46 6 -60 1
-3 -1 -9 -1 -15 0 -28 6 -65 5 -65 -2 0 -4 -11 -4 -23 1 -13 5 -30 5 -37 1 -8
-5 -19 -6 -24 -3 -15 10 -57 10 -62 1 -3 -5 -10 -5 -17 -1 -14 9 -60 9 -74 0
-7 -4 -14 -4 -16 0 -6 10 -89 9 -104 0 -7 -4 -14 -4 -17 1 -5 9 -47 9 -63 -1
-7 -4 -14 -4 -17 1 -5 9 -47 9 -63 -1 -7 -4 -14 -4 -17 1 -3 5 -22 7 -43 4
-47 -4 -49 -4 -95 0 -21 3 -38 1 -38 -4 0 -5 -8 -5 -17 -1 -10 5 -31 7 -48 6
-30 -3 -35 -3 -80 -3 -14 0 -31 -1 -37 -1 -7 0 -30 1 -51 3 -20 3 -37 1 -37
-4 0 -5 -8 -5 -17 -1 -26 12 -120 8 -137 -6 -8 -7 -22 -27 -31 -46 -9 -19 -20
-35 -25 -35 -6 0 -10 -5 -10 -10 0 -6 -25 -50 -56 -98 -94 -145 -119 -183
-175 -272 -29 -47 -57 -86 -61 -88 -5 -2 -8 -8 -8 -12 0 -8 -76 -132 -110
-180 -6 -8 -35 -53 -65 -100 -169 -268 -209 -330 -355 -557 -52 -81 -97 -152
-99 -157 -2 -6 -8 -15 -13 -21 -20 -23 -128 -197 -128 -206 0 -5 -3 -9 -7 -9
-5 0 -15 -12 -24 -28 -8 -15 -32 -53 -53 -85 l-37 -57 4893 3 c2691 2 4927 6
4968 10 41 3 108 8 147 11 40 3 99 8 130 12 32 3 72 8 88 10 17 2 48 6 70 9
22 3 56 8 75 10 19 2 36 5 38 6 3 2 13 4 62 13 25 4 81 17 125 28 44 11 88 20
97 21 10 1 18 5 18 9 0 4 8 8 18 8 9 0 62 16 117 36 55 20 115 41 133 47 17 5
32 14 32 19 0 4 5 8 11 8 16 0 123 52 127 62 2 4 10 8 18 8 24 0 263 152 272
173 2 4 10 7 17 7 7 0 15 3 17 8 2 4 23 23 48 42 78 60 243 211 299 274 14 15
47 51 74 78 26 28 47 52 47 54 0 2 8 12 18 22 24 25 72 83 102 123 14 18 33
41 43 51 9 10 16 19 15 21 -1 1 30 45 68 97 59 80 91 127 185 270 80 122 119
184 119 187 0 2 27 44 60 94 33 50 60 92 60 94 0 2 32 51 70 109 39 58 70 108
70 110 0 4 39 65 119 186 20 30 42 67 50 83 8 15 18 27 23 27 4 0 8 4 8 10 0
5 29 55 65 110 36 55 65 105 65 109 0 5 4 11 8 13 4 2 35 46 67 98 33 52 63
97 68 98 4 2 7 8 7 13 0 11 72 123 83 127 4 2 7 8 7 14 0 6 11 26 25 44 14 18
25 35 25 38 0 3 26 45 57 93 31 48 84 131 118 183 34 52 81 127 104 165 23 39
52 84 64 101 12 18 54 82 92 144 39 61 76 118 83 125 6 7 12 16 12 19 0 3 34
57 75 121 l76 116 -81 122 c-44 67 -84 127 -88 132 -4 6 -48 71 -97 145 -48
74 -93 138 -99 142 -6 4 -7 8 -2 8 5 0 2 8 -6 18 -20 22 -128 181 -128 188 0
3 -5 10 -11 17 -8 9 -235 348 -299 447 -5 8 -28 41 -50 73 -22 32 -40 62 -40
67 0 6 -3 10 -8 10 -4 0 -22 25 -40 55 -18 30 -34 55 -35 54 -1 0 -9 -4 -17
-9z"/>
</g>
</svg>
