<svg xmlns="http://www.w3.org/2000/svg" viewBox="0 0 119 926"><defs><style>.cls-1{fill:none;stroke:#3fa9f5;stroke-miterlimit:10;}</style></defs><title>Asset 1</title><g id="Layer_2" data-name="Layer 2"><g id="Layer_1-2" data-name="Layer 1"><line class="cls-1" x1="118.5" x2="118.5" y2="164"/><path class="cls-1" d="M118.5,163.5a33,33,0,0,1-33,33"/><line class="cls-1" x1="0.5" y1="394" x2="0.5" y2="230"/><path class="cls-1" d="M.5,230.5a33,33,0,0,1,33-33"/><line class="cls-1" x1="85.5" y1="196.5" x2="33.5" y2="197.5"/><line class="cls-1" x1="0.5" y1="256" x2="0.5" y2="420"/><path class="cls-1" d="M.5,419.5a33,33,0,0,0,33,33"/><line class="cls-1" x1="118.5" y1="650" x2="118.5" y2="486"/><path class="cls-1" d="M118.5,486.5a33,33,0,0,0-33-33"/><line class="cls-1" x1="33.5" y1="452.5" x2="85.5" y2="453.5"/><line class="cls-1" x1="118.5" y1="532" x2="118.5" y2="696"/><path class="cls-1" d="M118.5,695.5a33,33,0,0,1-33,33"/><line class="cls-1" x1="0.5" y1="926" x2="0.5" y2="762"/><path class="cls-1" d="M.5,762.5a33,33,0,0,1,33-33"/><line class="cls-1" x1="85.5" y1="728.5" x2="33.5" y2="729.5"/></g></g></svg>