<svg id="svg3037" xmlns="http://www.w3.org/2000/svg" viewBox="0 0 642.86 642.86" width="60px" height="60px">
  <title>Repeat_font_awesome</title>
  <g id="g3039">
    <path id="path3041" d="M693.7,398.23v187.5a27.15,27.15,0,0,1-26.78,26.79H479.42q-17.58,0-24.69-16.74-7.12-16.32,5.86-28.88l57.75-57.76q-61.94-57.33-146.06-57.33a208.74,208.74,0,0,0-83.08,16.95q-39.56,17-68.43,45.83A216,216,0,0,0,174.94,583a212.08,212.08,0,0,0,0,166.16A212.23,212.23,0,0,0,289.2,863.43a208.74,208.74,0,0,0,83.08,17q70.73,0,127.23-41.65t77.43-109.44q2.92-9.63,12.55-9.63h83.29a12.34,12.34,0,0,1,10.46,5q4.18,5.43,2.93,11.3-16.32,73.23-61.73,130.58a314.68,314.68,0,0,1-111.33,89.14q-65.92,31.81-140.83,31.81A312.71,312.71,0,0,1,247.56,962Q188.12,936.46,145,893.35T76.38,790.81a317.41,317.41,0,0,1,0-249.44Q101.91,481.94,145,438.83t102.54-68.64a317.1,317.1,0,0,1,243.79-2.3,325.09,325.09,0,0,1,102.33,65.5l54.41-54q12.13-13,29.29-5.86Q693.7,380.67,693.7,398.23Z" transform="translate(-50.85 -344.66)" fill="#3fa9f5"/>
  </g>
</svg>
